<svg viewBox="0 0 128 156" fill="none" xmlns="http://www.w3.org/2000/svg">
<g clip-path="url(#clip0_3_100)">
<path d="M46.3274 92.0968C44.7885 93.4238 43.4608 95.3789 41.6773 95.9784C27.3429 100.797 20.3873 112.515 23.4923 129.252C33.8455 119.891 43.5672 111.1 53.9571 102.136C55.4161 101.974 56.2071 101.987 57.2931 102.148C59.7249 104.53 61.8616 106.762 64.0456 109.313C64.7295 110.087 65.3661 110.544 66.2992 111.151C70.7304 115.534 74.8651 119.767 78.9999 124.333C78.999 125.111 78.9982 125.556 78.6983 126.152C77.2555 127.906 76.1119 129.508 74.6062 131.08C67.7358 125.531 61.8376 127.082 54.7592 131.02C42.0358 138.098 28.5778 143.855 15.094 150.02C12.0719 147.264 8.82786 145.008 6.86479 141.933C5.23556 139.381 3.61123 138.679 1 139C1 130.312 1 121.625 1.35911 112.552C2.81289 111.104 3.90756 110.043 5.15316 108.686C9.53225 104.261 13.7604 100.132 18.3089 95.9539C19.0869 95.2625 19.5446 94.6191 20.154 93.6813C24.5333 89.2584 28.7608 85.13 33.3656 81.0006C34.4968 81.0002 35.2508 81.0007 36.3007 81.1512C39.3973 84.1994 42.198 87.0975 45.0439 90.3256C45.5019 91.1359 45.9147 91.6164 46.3274 92.0968Z" fill="#FBFBFB"/>
<path d="M125.5 157C123.843 155.935 122.856 154.514 121.5 153.864C112.561 149.578 103.542 145.459 94.2689 140.696C89.6594 135.404 85.3296 130.702 80.9992 125.666C80.9992 124.888 80.9997 124.444 81.1504 123.703C84.1962 120.939 87.0918 118.472 89.9875 116.004C95.3798 119.968 100.772 123.931 106.591 128.208C107.335 119.302 106.814 111.401 101.454 104.286C102.766 102.706 103.728 101.415 104.884 100.329C106.508 98.8034 108.275 97.4309 110.202 95.8825C110.699 95.5696 110.888 95.305 111.132 94.6724C115.513 89.912 119.752 85.4573 124.356 81.0465C126.149 81.3937 127.574 81.6968 129 82C129 91.0209 129 100.042 128.788 109.182C127.642 109.684 126.708 110.065 125.775 110.447C125.78 110.806 125.785 111.165 125.79 111.524C126.86 111.683 127.93 111.841 129 112C129 120.688 129 129.375 128.756 138.182C127.434 138.825 126.356 139.349 125.277 139.873C125.286 140.286 125.295 140.699 125.304 141.112C126.536 141.408 127.768 141.704 129 142C129 146.167 128.659 150.371 129.11 154.488C129.458 157.662 127.654 156.952 125.5 157ZM98.43 137.774C98.6961 137.573 98.887 137.316 99.4299 136.774C99.696 136.573 99.887 136.316 100.43 135.774C100.696 135.573 100.887 135.317 101.43 134.774C101.696 134.573 101.887 134.316 102.43 133.774C102.696 133.573 102.887 133.317 103.43 132.774C103.696 132.573 103.887 132.317 104.254 131.898C104.168 131.931 104.082 131.964 103.569 132.227C103.302 132.427 103.111 132.684 102.569 133.227C102.302 133.427 102.111 133.684 101.569 134.227C101.302 134.427 101.111 134.684 100.569 135.227C100.302 135.427 100.111 135.684 99.5689 136.227C99.3023 136.428 99.1116 136.684 98.5692 137.227C98.3025 137.427 98.1116 137.684 97.7464 138.103C97.8318 138.07 97.9172 138.037 98.43 137.774Z" fill="#FCFCFC"/>
<path d="M32.9884 81.0015C28.7608 85.13 24.5333 89.2584 19.8366 93.7356C18.9078 94.7235 18.4482 95.3627 17.9886 96.0018C13.7604 100.132 9.53225 104.261 4.74949 108.692C3.12993 108.995 2.06497 108.998 1 109C1 100.312 1 91.6249 1.35506 82.5774C2.80929 81.1391 3.90844 80.0609 5.12133 78.7733C5.43299 78.3036 5.68546 78.1168 6.20965 77.8898C6.69768 77.5745 6.89036 77.315 7.00229 76.9986C6.99971 76.9997 6.99753 77.0049 7.21446 76.891C7.70178 76.5753 7.89326 76.3153 8.00274 75.9984C7.99966 75.9997 7.99723 76.0058 8.2141 75.8917C8.70136 75.5755 8.89286 75.3154 9.00257 74.9985C8.99967 74.9997 8.99732 75.0055 9.21398 74.8911C9.70077 74.5748 9.89243 74.3149 10.0027 73.9985C9.99967 73.9997 9.99728 74.0056 10.2143 73.8916C10.702 73.5756 10.8936 73.3155 11.0029 72.9984C10.9996 72.9997 10.9972 73.0061 11.2152 72.8908C11.7051 72.5712 11.896 72.3081 12.1189 71.777C12.4289 71.307 12.6804 71.1197 13.2059 70.8928C13.6988 70.5782 13.8924 70.3173 14.0029 69.9984C13.9996 69.9997 13.9972 70.0061 14.2142 69.8921C14.7018 69.576 14.8932 69.3157 15.0026 68.9985C14.9997 68.9997 14.9973 69.0055 15.2138 68.8911C15.7 68.5747 15.8916 68.315 16.0023 67.9986C15.9997 67.9997 15.9975 68.0048 16.2141 67.8905C16.7007 67.5743 16.8923 67.3146 17.0027 66.9984C16.9997 66.9997 16.9972 67.0058 17.2144 66.892C17.7023 66.5764 17.8935 66.3161 18.0025 65.9985C17.9998 65.9997 17.9989 66.0051 18.3745 66.0038C19.5013 66.0088 20.2525 66.0151 21.2036 66.2822C25.2675 70.3566 29.1314 74.1701 32.9966 78.3612C32.9946 79.493 32.9915 80.2473 32.9884 81.0015Z" fill="white"/>
<path d="M117.364 58.867C121.067 63.4682 124.771 68.0695 128.737 72.3354C129 73.0667 129 74.1333 128.645 75.6243C126.857 77.0321 125.423 78.0156 123.701 78.8535C121.942 77.1416 120.47 75.5754 118.885 73.792C118.57 73.3041 118.31 73.1127 117.779 72.8868C117.303 72.5741 117.113 72.3193 116.886 71.7922C116.573 71.306 116.315 71.1144 115.999 71.0004C115.999 71.0004 115.999 71.0014 115.885 70.7858C115.568 70.3014 115.308 70.1117 114.714 69.8649C113.625 68.8221 112.812 67.9154 111.999 66.6076C112 65.1375 112 64.0686 112 62.9998C112 62.9998 112 62.9994 112.214 62.8858C112.696 62.5717 112.887 62.3142 113 61.9998C113 61.9998 113 61.9995 113.214 61.8858C113.696 61.5717 113.887 61.3142 114 60.9998C114 60.9998 114 60.9996 114.214 60.8858C114.696 60.5717 114.887 60.3142 115 59.9998C115 59.9998 115 59.9996 115.215 59.8856C115.698 59.5707 115.89 59.3134 116.346 58.9699C116.912 58.9159 117.138 58.8914 117.364 58.867Z" fill="#FBFBFB"/>
<path d="M12.9866 71.0057C12.6804 71.1197 12.4289 71.307 11.9037 71.8961C11.3064 72.4286 11.1136 72.6891 10.9972 73.0061C10.9972 73.0061 10.9996 72.9997 10.7871 73.114C10.3056 73.4306 10.1131 73.6897 9.99728 74.0056C9.99728 74.0056 9.99967 73.9997 9.78718 74.1143C9.30615 74.4313 9.11369 74.6901 8.99732 75.0055C8.99732 75.0055 8.99967 74.9997 8.78694 75.1142C8.30548 75.431 8.11316 75.6901 7.99723 76.0058C7.99723 76.0058 7.99966 75.9997 7.78711 76.114C7.30582 76.4304 7.11347 76.6892 6.99753 77.0049C6.99753 77.0049 6.99971 76.9997 6.78706 77.1148C6.30654 77.4323 6.11255 77.6902 5.99244 78.0036C5.68546 78.1168 5.43299 78.3036 4.71868 78.7781C3.13487 78.9948 2.06744 78.9974 1 79C1 76.6294 1 74.2589 1 71.4442C1.77972 70.6173 2.80389 70.4323 3.29925 69.8196C6.3703 66.0215 9.32258 62.1274 12.9087 58.2555C15.0017 59.8284 16.5003 61.411 17.9998 63.3701C18.0001 64.4994 17.9995 65.2523 17.9989 66.0051C17.9989 66.0051 17.9998 65.9997 17.7867 66.1141C17.3049 66.4307 17.1127 66.6898 16.9972 67.0058C16.9972 67.0058 16.9997 66.9997 16.7874 67.1144C16.3068 67.4312 16.1143 67.6898 15.9975 68.0048C15.9975 68.0048 15.9997 67.9997 15.7871 68.1147C15.3064 68.432 15.114 68.6906 14.9973 69.0055C14.9973 69.0055 14.9997 68.9997 14.7869 69.1143C14.3054 69.4312 14.113 69.6903 13.9972 70.0061C13.9972 70.0061 13.9996 69.9997 13.7863 70.1145C13.3038 70.4325 13.1084 70.6913 12.9866 71.0057Z" fill="#FAFAFB"/>
<path d="M15.094 150.02C11.4321 152.239 7.43761 154.314 3.72154 156.694C3.02143 157 2.04287 157 1 157C1 151.313 1 145.626 1 139.47C3.61123 138.679 5.23556 139.381 6.86479 141.933C8.82786 145.008 12.0719 147.264 15.094 150.02Z" fill="#F8F8F8"/>
<path d="M123.99 78.9992C125.423 78.0156 126.857 77.0321 128.645 76.0243C129 77.7144 129 79.4287 129 81.5715C127.574 81.6968 126.149 81.3937 124.36 80.7126C123.994 79.8895 123.992 79.4444 123.99 78.9992Z" fill="#F7F7F7"/>
<path d="M1 109.375C2.06497 108.998 3.12993 108.995 4.59857 108.987C3.90756 110.043 2.81289 111.104 1.35911 112.083C1 111.25 1 110.5 1 109.375Z" fill="#F0F0F0"/>
<path d="M1 79.375C2.06744 78.9974 3.13487 78.9948 4.60496 78.9874C3.90844 80.0609 2.80929 81.1391 1.35506 82.1087C1 81.25 1 80.5 1 79.375Z" fill="#F0F0F0"/>
<path d="M129 141.625C127.768 141.704 126.536 141.408 125.304 141.112C125.295 140.699 125.286 140.286 125.277 139.873C126.356 139.349 127.434 138.825 128.756 138.65C129 139.75 129 140.5 129 141.625Z" fill="#D7D7D8"/>
<path d="M129 111.667C127.93 111.841 126.86 111.683 125.79 111.524C125.785 111.165 125.78 110.806 125.775 110.447C126.708 110.065 127.642 109.684 128.788 109.651C129 110.444 129 110.889 129 111.667Z" fill="#D7D7D8"/>
<path d="M123.701 78.8535C123.992 79.4444 123.994 79.8895 123.993 80.6687C119.752 85.4573 115.513 89.912 110.918 94.7912C110.294 95.4197 110.1 95.6789 109.981 95.9931C108.275 97.4309 106.508 98.8034 104.884 100.329C103.728 101.415 102.766 102.706 101.37 103.95C95.3369 100.495 89.6501 96.9974 82.9528 92.8781C81.3455 75.2303 79.5998 56.0627 78.3478 36.4498C79.8972 36.0035 80.953 36.0025 82.3111 36.1576C86.4047 40.5431 90.1962 44.7723 94.0381 49.3186C94.7255 50.0937 95.3625 50.5518 96.1507 51.3058C100.534 55.3982 104.766 59.1948 108.994 63.3421C108.659 64.7944 108.328 65.8961 107.783 67.1122C107.302 67.427 107.111 67.6841 106.783 68.1122C106.302 68.427 106.111 68.684 105.783 69.1122C105.302 69.4268 105.111 69.6838 104.783 70.112C104.301 70.4267 104.111 70.6837 103.782 71.1119C103.301 71.4267 103.111 71.6837 102.783 72.1119C102.301 72.4268 102.111 72.6838 101.783 73.112C101.302 73.4268 101.111 73.6838 100.783 74.112C100.301 74.4267 100.111 74.6838 99.7826 75.1119C99.3013 75.4266 99.1107 75.6836 98.7827 76.1118C98.3023 76.4264 98.1118 76.6832 97.7831 77.1107C97.3021 77.4256 97.1116 77.6828 96.8709 78.0494C96.8308 78.0691 96.9172 78.0359 97.218 77.8887C97.7 77.5745 97.8904 77.3172 98.2177 76.8887C98.699 76.5745 98.8892 76.3174 99.2171 75.8896C99.6988 75.5751 99.8891 75.3176 100.217 74.8895C100.699 74.575 100.889 74.3176 101.217 73.8894C101.699 73.5751 101.889 73.3176 102.217 72.8895C102.699 72.5752 102.889 72.3178 103.217 71.8897C103.699 71.5753 103.889 71.3178 104.217 70.8897C104.699 70.5752 104.889 70.3177 105.217 69.8895C105.699 69.5749 105.889 69.3173 106.217 68.8892C106.699 68.5748 106.889 68.3173 107.217 67.8892C107.699 67.5748 107.889 67.3174 108.3 66.9804C109.732 66.9746 110.865 66.9917 111.999 67.0088C112.812 67.9154 113.625 68.8221 114.831 70.0788C115.426 70.696 115.684 70.8869 115.999 71.0014C115.999 71.0014 116 71 116.114 71.2154C116.429 71.6982 116.686 71.8908 116.999 72.0086C117.113 72.3193 117.303 72.5741 117.896 73.1014C118.427 73.6974 118.685 73.8905 118.999 74.0091C120.47 75.5754 121.942 77.1416 123.701 78.8535Z" fill="#FDFDFD"/>
<path d="M89.8289 115.71C87.0918 118.472 84.1962 120.939 80.8168 123.704C79.8887 124.002 79.4443 124.001 78.9999 124C74.8652 119.767 70.7304 115.534 66.2483 110.835C65.2668 109.911 64.6326 109.453 63.9983 108.995C61.8616 106.762 59.7249 104.53 57.1415 101.809C56.3984 100.385 56.1022 99.4478 55.8059 98.5108C59.0287 90.1107 59.1616 81.3494 58.8445 72.5351C58.8146 71.7051 59.1229 70.6659 58.7367 70.0753C53.1034 61.4596 60.0001 56.6973 64.7512 50.7476C67.5117 54.1546 70.2404 57.4115 72.8056 60.7925C73.2587 61.3896 73.3161 62.5946 73.0733 63.3671C66.3423 84.7823 71.0636 100.505 88.4941 114.492C88.8829 114.804 89.2781 115.108 89.8289 115.71Z" fill="#FBFBFB"/>
<path d="M32.9954 77.9836C29.1314 74.1701 25.2675 70.3566 21.1753 65.9828C20.6322 64.9398 20.3173 64.457 20.1554 63.6808C23.5342 60.2598 26.76 57.1322 30.2052 53.8898C30.6983 53.5715 30.8916 53.3087 31.1167 52.7767C31.4259 52.3048 31.6778 52.1172 32.3448 51.9614C33.8041 50.612 34.9037 49.3051 36.0016 47.999C36.0016 47.999 35.9982 48.0036 36.2141 47.8895C36.6992 47.574 36.8902 47.315 37.0015 46.9991C37.0015 46.9991 36.9984 47.0031 37.2141 46.889C37.6987 46.5736 37.8897 46.3148 38.0014 45.9992C38.0014 45.9992 37.9985 46.0029 38.2142 45.8888C38.6988 45.5735 38.8898 45.3147 39.0013 44.9992C39.0013 44.9992 38.9985 45.0028 39.2142 44.8888C39.6988 44.5735 39.8898 44.3147 40.0013 43.9992C40.0013 43.9992 39.9985 44.0028 40.2142 43.8888C40.6988 43.5734 40.8898 43.3147 41.0014 42.9991C41.0014 42.9991 40.9984 43.003 41.2143 42.889C41.6991 42.5736 41.8901 42.3148 42.0015 41.9991C42.0015 41.9991 41.9984 42.0032 42.2145 41.8887C42.7001 41.572 42.8908 41.3121 43.1276 40.7326C43.8334 39.9812 44.4143 39.4918 45.2115 38.8885C45.6977 38.5734 45.8889 38.3141 46.126 37.735C46.8304 36.9837 47.4104 36.4942 48.3688 36.0042C49.7555 36.0074 50.7639 36.0113 51.7723 36.0152C50.8607 45.7307 49.9492 55.4462 48.632 65.6137C47.481 66.7109 46.7356 67.3563 45.6945 68.1521C42.2664 71.5319 39.1341 74.7612 35.7532 78.0924C34.6683 78.124 33.8318 78.0538 32.9954 77.9836Z" fill="#FDFDFD"/>
<path d="M108.999 62.9914C104.766 59.1948 100.534 55.3982 96.1044 50.9864C95.2672 49.9145 94.6274 49.458 93.9877 49.0016C90.1962 44.7723 86.4047 40.5431 82.3129 35.7926C85.0882 32.1489 88.1639 29.0265 91.2395 25.9041C99.8706 36.6718 108.502 47.4395 117.248 58.5371C117.138 58.8914 116.912 58.9159 116.13 59.0835C115.306 59.4269 115.114 59.6846 115 59.9996C115 59.9996 115 60 114.786 60.1139C114.304 60.4284 114.113 60.6856 114 60.9996C114 60.9996 114 61 113.786 61.114C113.304 61.4284 113.113 61.6856 113 61.9996C113 61.9996 113 62 112.786 62.1139C112.304 62.4283 112.114 62.6855 112 62.9994C112 62.9994 112 63 111.751 63.0969C110.667 63.1264 109.833 63.0589 108.999 62.9914Z" fill="#FBFBFB"/>
<path d="M47.9904 36.0047C47.4104 36.4942 46.8304 36.9837 45.912 37.8517C45.3068 38.4323 45.1141 38.6896 44.9952 39.0024C44.4143 39.4918 43.8334 39.9812 42.9135 40.8496C42.3073 41.4309 42.1153 41.6891 41.9984 42.0032C41.9984 42.0032 41.9998 41.9998 41.7871 42.1149C41.3071 42.4316 41.1152 42.6892 40.9984 43.003C40.9984 43.003 40.9998 42.9998 40.7871 43.115C40.3073 43.4317 40.1154 43.6893 39.9985 44.0028C39.9985 44.0028 39.9998 43.9998 39.7871 44.115C39.3073 44.4317 39.1153 44.6893 38.9985 45.0028C38.9985 45.0028 38.9998 44.9998 38.7871 45.115C38.3073 45.4318 38.1153 45.6893 37.9985 46.0029C37.9985 46.0029 37.9998 45.9998 37.7871 46.1151C37.3072 46.4319 37.1152 46.6896 36.9984 47.0031C36.9984 47.0031 36.9998 46.9998 36.787 47.115C36.3069 47.4318 36.1149 47.6897 35.9982 48.0036C35.9982 48.0036 35.9998 47.9998 35.7438 48.1112C34.9901 48.4821 34.4924 48.7417 33.9974 49.0006C34.0002 48.9998 34.0019 49.0054 33.8871 48.7873C33.5688 48.2987 33.3095 48.102 32.8429 47.6868C30.4896 45.3379 28.2877 43.2813 26.0857 41.2248C35.037 29.7796 43.9882 18.3343 52.9395 6.88909C53.4091 7.04343 53.8787 7.19777 54.3482 7.35211C53.598 15.6321 52.8479 23.9121 51.6029 32.5973C50.0689 34.0033 49.0296 35.004 47.9904 36.0047Z" fill="#F9F9F9"/>
<path d="M91.1223 25.5799C88.1639 29.0265 85.0882 32.1489 82.0107 35.6363C80.953 36.0025 79.8972 36.0035 78.4457 36.0031C76.9298 26.2751 75.8096 16.5486 74.6895 6.82209C75.0452 6.61612 75.401 6.41015 75.7567 6.20418C80.8395 12.5547 85.9223 18.9052 91.1223 25.5799Z" fill="#F7F7F7"/>
<path d="M25.7913 41.3692C28.2877 43.2813 30.4896 45.3379 32.9544 47.9082C33.4182 48.698 33.6797 48.8925 34.0019 49.0054C34.0019 49.0054 34.0002 48.9998 33.8672 49.2734C33.1512 50.366 32.5682 51.1849 31.9851 52.0039C31.6778 52.1172 31.4259 52.3048 30.9011 52.8961C30.3043 53.4302 30.1086 53.6899 29.9857 54.0045C26.76 57.1322 23.5342 60.2598 19.8949 63.5804C18.9872 63.5135 18.493 63.2536 17.9988 62.9936C16.5003 61.411 15.0017 59.8284 13.2049 58.1026C17.1034 52.4775 21.3002 46.9955 25.7913 41.3692Z" fill="#FCFCFC"/>
<path d="M36.0018 77.9906C39.1341 74.7612 42.2664 71.5319 46.1639 68.1624C47.5545 68.0463 48.1798 68.0704 48.8052 68.0944C48.1797 74.7878 47.5542 81.4812 46.574 88.7158C45.8124 89.5032 45.4055 89.7494 44.9986 89.9956C42.198 87.0975 39.3973 84.1994 36.2966 80.775C35.9983 79.496 36 78.7433 36.0018 77.9906Z" fill="#FCFCFC"/>
<path d="M48.3688 36.0042C49.0296 35.004 50.0689 34.0033 51.4864 32.9979C51.9031 33.7545 51.9415 34.5158 51.8761 35.6462C50.7639 36.0113 49.7555 36.0074 48.3688 36.0042Z" fill="#F0F0F0"/>
<path d="M55.5246 98.7031C56.1022 99.4478 56.3984 100.385 56.8463 101.661C56.207 101.987 55.4161 101.974 54.23 101.947C54.3043 100.92 54.7738 99.9075 55.5246 98.7031Z" fill="#EEEEEE"/>
<path d="M48.8936 67.8395C48.1798 68.0704 47.5545 68.0463 46.4597 68.012C46.7356 67.3563 47.481 66.7109 48.5327 66.0273C48.8866 66.5209 48.9343 67.0527 48.8936 67.8395Z" fill="#F0F0F0"/>
<path d="M45.0439 90.3256C45.4055 89.7494 45.8124 89.5032 46.4311 89.1447C46.6342 89.8658 46.6255 90.6993 46.4721 91.8148C45.9147 91.6164 45.5019 91.1359 45.0439 90.3256Z" fill="#F0F0F0"/>
<path d="M80.9997 126C85.3296 130.702 89.6594 135.404 93.9963 140.464C87.7873 137.773 81.5712 134.725 75.1617 131.394C76.1119 129.508 77.2555 127.906 79.0323 126.153C80.1103 126.001 80.555 126 80.9997 126Z" fill="#F9F9F9"/>
<path d="M35.7532 78.0924C36 78.7433 35.9983 79.496 36.0006 80.625C35.2508 81.0007 34.4968 81.0002 33.3656 81.0006C32.9915 80.2473 32.9946 79.493 32.9966 78.3612C33.8318 78.0538 34.6683 78.124 35.7532 78.0924Z" fill="#F0F0F0"/>
<path d="M64.0456 109.313C64.6326 109.453 65.2668 109.911 65.9519 110.685C65.3661 110.544 64.7295 110.087 64.0456 109.313Z" fill="#EEEEEE"/>
<path d="M80.9992 125.666C80.555 126 80.1103 126.001 79.3315 126.001C78.9982 125.556 78.999 125.111 78.9999 124.333C79.4443 124.001 79.8887 124.002 80.6666 124.001C80.9997 124.444 80.9992 124.888 80.9992 125.666Z" fill="#EEEEEE"/>
<path d="M18.3089 95.9539C18.4482 95.3627 18.9078 94.7235 19.6849 94.03C19.5446 94.6191 19.0869 95.2625 18.3089 95.9539Z" fill="#F0F0F0"/>
<path d="M110.202 95.8825C110.1 95.6789 110.294 95.4197 110.775 95.0969C110.888 95.305 110.699 95.5696 110.202 95.8825Z" fill="#F7F7F7"/>
<path d="M103.996 131.997C104.082 131.964 104.168 131.931 104.127 131.949C104 132 103.996 131.997 103.996 131.997Z" fill="#F9F9F9"/>
<path d="M104.002 132.002C103.887 132.317 103.696 132.573 103.215 132.887C103 133 102.996 132.997 102.996 132.997C103.111 132.684 103.302 132.427 103.782 132.112C103.996 131.997 104 132 104.002 132.002Z" fill="#F9F9F9"/>
<path d="M103.001 133.002C102.887 133.317 102.696 133.573 102.215 133.887C102 134 101.996 133.997 101.996 133.997C102.111 133.684 102.302 133.427 102.782 133.112C102.996 132.997 103 133 103.001 133.002Z" fill="#F9F9F9"/>
<path d="M100.996 134.997C101.111 134.684 101.302 134.427 101.783 134.112C101.996 133.997 102 134 102.001 134.002C101.887 134.316 101.696 134.573 101.215 134.887C101 135 100.996 134.997 100.996 134.997Z" fill="#F9F9F9"/>
<path d="M99.9962 135.997C100.111 135.684 100.302 135.427 100.782 135.112C100.996 134.997 101 135 101.002 135.002C100.887 135.317 100.696 135.573 100.215 135.887C100 136 99.9962 135.997 99.9962 135.997Z" fill="#F9F9F9"/>
<path d="M98.9967 136.998C99.1116 136.684 99.3023 136.428 99.7825 136.112C99.9962 135.997 100 136 100.001 136.002C99.887 136.316 99.696 136.573 99.2149 136.887C99 137 98.9967 136.998 98.9967 136.998Z" fill="#F9F9F9"/>
<path d="M97.9966 137.997C98.1116 137.684 98.3025 137.427 98.783 137.112C98.9967 136.998 99 137 99.0012 137.002C98.887 137.316 98.6961 137.573 98.215 137.887C98 138 97.9966 137.997 97.9966 137.997Z" fill="#F9F9F9"/>
<path d="M98.0013 138.002C97.9172 138.037 97.8318 138.07 97.8715 138.05C97.9966 137.997 98 138 98.0013 138.002Z" fill="#F9F9F9"/>
<path d="M17.9998 63.3701C18.493 63.2536 18.9872 63.5135 19.7419 63.8738C20.3173 64.457 20.6322 64.9398 20.9754 65.722C20.2525 66.0151 19.5013 66.0088 18.3745 66.0038C17.9995 65.2523 18.0001 64.4994 17.9998 63.3701Z" fill="#F0F0F0"/>
<path d="M6.20965 77.8898C6.11255 77.6902 6.30654 77.4323 6.78964 77.1137C6.89035 77.315 6.69768 77.5745 6.20965 77.8898Z" fill="#F0F0F0"/>
<path d="M7.21446 76.891C7.11347 76.6892 7.30582 76.4304 7.7902 76.1127C7.89326 76.3153 7.70178 76.5753 7.21446 76.891Z" fill="#F0F0F0"/>
<path d="M17.2144 66.892C17.1127 66.6898 17.3049 66.4307 17.7894 66.1129C17.8935 66.3161 17.7023 66.5764 17.2144 66.892Z" fill="#F0F0F0"/>
<path d="M16.2141 67.8905C16.1143 67.6898 16.3068 67.4312 16.7905 67.1131C16.8923 67.3146 16.7007 67.5743 16.2141 67.8905Z" fill="#F0F0F0"/>
<path d="M15.2138 68.8911C15.114 68.6906 15.3064 68.432 15.7897 68.1136C15.8916 68.315 15.7 68.5747 15.2138 68.8911Z" fill="#F0F0F0"/>
<path d="M14.2142 69.8921C14.113 69.6903 14.3054 69.4312 14.7898 69.113C14.8932 69.3157 14.7018 69.576 14.2142 69.8921Z" fill="#F0F0F0"/>
<path d="M13.2059 70.8928C13.1084 70.6913 13.3038 70.4325 13.7895 70.1132C13.8924 70.3173 13.6988 70.5782 13.2059 70.8928Z" fill="#F0F0F0"/>
<path d="M11.2152 72.8908C11.1136 72.6891 11.3064 72.4286 11.7906 72.1053C11.896 72.3081 11.7051 72.5712 11.2152 72.8908Z" fill="#F0F0F0"/>
<path d="M10.2143 73.8916C10.1132 73.6897 10.3056 73.4306 10.7903 73.1127C10.8936 73.3155 10.702 73.5756 10.2143 73.8916Z" fill="#F0F0F0"/>
<path d="M9.21398 74.8911C9.11369 74.6901 9.30615 74.4313 9.79017 74.1131C9.89243 74.3149 9.70077 74.5748 9.21398 74.8911Z" fill="#F0F0F0"/>
<path d="M8.2141 75.8917C8.11316 75.6901 8.30548 75.431 8.78985 75.113C8.89286 75.3154 8.70136 75.5755 8.2141 75.8917Z" fill="#F0F0F0"/>
<path d="M108.994 63.3421C109.833 63.0589 110.667 63.1264 111.75 63.0968C112 64.0686 112 65.1375 111.999 66.6076C110.865 66.9917 109.732 66.9746 108.299 66.9788C108 67 107.997 66.9977 107.997 66.9977C108.328 65.8961 108.659 64.7944 108.994 63.3421Z" fill="#F7F7F7"/>
<path d="M115.885 70.7858C115.684 70.8869 115.426 70.696 115.107 70.2149C115.308 70.1117 115.568 70.3014 115.885 70.7858Z" fill="#F7F7F7"/>
<path d="M113.214 61.8858C113.113 61.6856 113.304 61.4284 113.785 61.1137C113.887 61.3142 113.696 61.5717 113.214 61.8858Z" fill="#F7F7F7"/>
<path d="M112.214 62.8858C112.114 62.6855 112.304 62.4283 112.785 62.1137C112.887 62.3142 112.696 62.5717 112.214 62.8858Z" fill="#F7F7F7"/>
<path d="M115.215 59.8856C115.114 59.6846 115.306 59.4269 115.79 59.1131C115.89 59.3134 115.698 59.5707 115.215 59.8856Z" fill="#F7F7F7"/>
<path d="M116.886 71.7922C116.686 71.8908 116.429 71.6982 116.113 71.2158C116.315 71.1144 116.573 71.306 116.886 71.7922Z" fill="#F7F7F7"/>
<path d="M118.885 73.792C118.685 73.8905 118.427 73.6974 118.108 73.2152C118.31 73.1127 118.57 73.3041 118.885 73.792Z" fill="#F7F7F7"/>
<path d="M114.214 60.8858C114.113 60.6856 114.304 60.4284 114.785 60.1137C114.887 60.3142 114.696 60.5717 114.214 60.8858Z" fill="#F7F7F7"/>
<path d="M94.0381 49.3186C94.6274 49.458 95.2672 49.9145 95.9532 50.6904C95.3625 50.5518 94.7255 50.0937 94.0381 49.3186Z" fill="#F7F7F7"/>
<path d="M97.0036 78.0026C96.9172 78.0359 96.8308 78.0691 96.8722 78.0512C97 78 97.0036 78.0026 97.0036 78.0026Z" fill="#F7F7F7"/>
<path d="M96.9987 77.9982C97.1116 77.6828 97.3021 77.4256 97.7845 77.1125C98 77 98.0036 77.0026 98.0036 77.0026C97.8904 77.3172 97.7 77.5745 97.218 77.8887C97.0036 78.0026 97 78 96.9987 77.9982Z" fill="#F7F7F7"/>
<path d="M108.001 67.0016C107.889 67.3174 107.699 67.5748 107.216 67.8877C107 68 106.997 67.9978 106.997 67.9978C107.111 67.6841 107.302 67.427 107.783 67.1122C107.997 66.9977 108.001 67.0016 108.001 67.0016Z" fill="#F7F7F7"/>
<path d="M107.001 68.0015C106.889 68.3173 106.699 68.5748 106.216 68.8877C106 69 105.997 68.9978 105.997 68.9978C106.111 68.684 106.302 68.427 106.783 68.1122C106.997 67.9978 107.001 68.0015 107.001 68.0015Z" fill="#F7F7F7"/>
<path d="M106.001 69.0015C105.889 69.3173 105.699 69.5749 105.216 69.8878C105 70 104.997 69.9975 104.997 69.9975C105.111 69.6838 105.302 69.4268 105.783 69.1122C105.997 68.9978 106.001 69.0015 106.001 69.0015Z" fill="#F7F7F7"/>
<path d="M105.001 70.0017C104.889 70.3177 104.699 70.5752 104.216 70.8879C104 71 103.996 70.9974 103.996 70.9974C104.111 70.6837 104.301 70.4267 104.783 70.112C104.997 69.9975 105 70 105.001 70.0017Z" fill="#F7F7F7"/>
<path d="M104.001 71.0018C103.889 71.3178 103.699 71.5753 103.216 71.8879C103 72 102.997 71.9974 102.997 71.9974C103.111 71.6837 103.301 71.4267 103.782 71.1119C103.996 70.9974 104 71 104.001 71.0018Z" fill="#F7F7F7"/>
<path d="M101.997 72.9976C102.111 72.6838 102.301 72.4268 102.783 72.1119C102.997 71.9974 103 72 103.001 72.0018C102.889 72.3178 102.699 72.5752 102.216 72.8878C102 73 101.997 72.9976 101.997 72.9976Z" fill="#F7F7F7"/>
<path d="M100.997 73.9976C101.111 73.6838 101.302 73.4268 101.783 73.112C101.997 72.9976 102 73 102.001 73.0017C101.889 73.3176 101.699 73.5751 101.216 73.8878C101 74 100.997 73.9976 100.997 73.9976Z" fill="#F7F7F7"/>
<path d="M99.9967 74.9976C100.111 74.6838 100.301 74.4267 100.783 74.112C100.997 73.9976 101 74 101.001 74.0016C100.889 74.3176 100.699 74.575 100.216 74.8878C100 75 99.9967 74.9976 99.9967 74.9976Z" fill="#F7F7F7"/>
<path d="M100.001 75.0016C99.8891 75.3176 99.6988 75.5751 99.2158 75.8879C99 76 98.9966 75.9975 98.9966 75.9975C99.1107 75.6836 99.3013 75.4266 99.7826 75.1119C99.9967 74.9976 100 75 100.001 75.0016Z" fill="#F7F7F7"/>
<path d="M99.0013 76.0017C98.8892 76.3174 98.699 76.5745 98.2177 76.8887C98.0036 77.0026 98 77 97.9987 76.9982C98.1118 76.6832 98.3023 76.4264 98.7827 76.1118C98.9966 75.9975 99 76 99.0013 76.0017Z" fill="#F7F7F7"/>
<path d="M32.3448 51.9614C32.5682 51.1849 33.1512 50.366 33.8645 49.2741C34.4924 48.7417 34.9901 48.4821 35.7456 48.1103C34.9037 49.3051 33.8041 50.612 32.3448 51.9614Z" fill="#F0F0F0"/>
<path d="M37.2141 46.889C37.1152 46.6896 37.3072 46.4319 37.7886 46.1144C37.8897 46.3148 37.6987 46.5736 37.2141 46.889Z" fill="#F0F0F0"/>
<path d="M36.2141 47.8895C36.1149 47.6897 36.3069 47.4318 36.7887 47.1142C36.8902 47.315 36.6992 47.574 36.2141 47.8895Z" fill="#F0F0F0"/>
<path d="M38.2142 45.8888C38.1153 45.6893 38.3073 45.4318 38.7886 45.1143C38.8898 45.3147 38.6988 45.5735 38.2142 45.8888Z" fill="#F0F0F0"/>
<path d="M39.2142 44.8888C39.1153 44.6893 39.3073 44.4317 39.7886 44.1143C39.8898 44.3147 39.6988 44.5735 39.2142 44.8888Z" fill="#F0F0F0"/>
<path d="M40.2142 43.8888C40.1154 43.6893 40.3073 43.4317 40.7887 43.1143C40.8898 43.3147 40.6988 43.5734 40.2142 43.8888Z" fill="#F0F0F0"/>
<path d="M41.2143 42.889C41.1152 42.6892 41.3071 42.4316 41.7888 42.1142C41.8901 42.3148 41.6991 42.5736 41.2143 42.889Z" fill="#F0F0F0"/>
<path d="M42.2145 41.8887C42.1153 41.6891 42.3073 41.4309 42.7886 41.1115C42.8908 41.3121 42.7001 41.572 42.2145 41.8887Z" fill="#F0F0F0"/>
<path d="M45.2115 38.8885C45.1141 38.6896 45.3068 38.4323 45.7875 38.1135C45.8889 38.3141 45.6977 38.5734 45.2115 38.8885Z" fill="#F0F0F0"/>
<path d="M30.2052 53.8898C30.1086 53.6899 30.3043 53.4302 30.7887 53.1061C30.8915 53.3087 30.6983 53.5715 30.2052 53.8898Z" fill="#F0F0F0"/>
<path d="M33.8871 48.7873C33.6797 48.8925 33.4182 48.698 33.1057 48.2006C33.3095 48.102 33.5688 48.2987 33.8871 48.7873Z" fill="#F0F0F0"/>
</g>
<defs>
<clipPath id="clip0_3_100">
<rect width="128" height="156" fill="white"/>
</clipPath>
</defs>
</svg>
