<?xml version="1.0" encoding="UTF-8" standalone="no"?>
<!-- Created with Inkscape (http://www.inkscape.org/) -->
<svg xmlns:inkscape="http://www.inkscape.org/namespaces/inkscape" xmlns:rdf="http://www.w3.org/1999/02/22-rdf-syntax-ns#" xmlns="http://www.w3.org/2000/svg" xmlns:xlink="http://www.w3.org/1999/xlink" xmlns:ns1="http://sozi.baierouge.fr" xmlns:cc="http://creativecommons.org/ns#" xmlns:sodipodi="http://sodipodi.sourceforge.net/DTD/sodipodi-0.dtd" xmlns:dc="http://purl.org/dc/elements/1.1/" id="svg2" xml:space="preserve" viewBox="0 0 422.56 95.271" version="1.1" inkscape:version="0.91 r13725">
  <defs id="defs6">
    <linearGradient id="linearGradient24" y2="-49.592" gradientUnits="userSpaceOnUse" x2="32.525" gradientTransform="matrix(.000099376 -.8 -.8 .0008 .00017899 76.204)" y1="-49.592" x1="24.475">
      <stop id="stop26" style="stop-color:#ffffff" offset="0"/>
      <stop id="stop28" style="stop-color:#c8dae3" offset="1"/>
    </linearGradient>
    <linearGradient id="linearGradient42" y2="-22.247" gradientUnits="userSpaceOnUse" x2="47.227" gradientTransform="matrix(.000054794 -.8 -.8 .0008 -.00018005 76.204)" y1="-22.247" x1="32.627">
      <stop id="stop44" style="stop-color:#ffffff" offset="0"/>
      <stop id="stop46" style="stop-color:#c8dae3" offset="1"/>
    </linearGradient>
    <linearGradient id="linearGradient60" y2="-28.566" gradientUnits="userSpaceOnUse" x2="49.334" gradientTransform="matrix(.00014746 -.8 -.8 .0008 .00036407 76.204)" y1="-28.566" x1="43.909">
      <stop id="stop62" style="stop-color:#ffffff" offset="0"/>
      <stop id="stop64" style="stop-color:#c8dae3" offset="1"/>
    </linearGradient>
    <linearGradient id="linearGradient78" y2="-13.598" gradientUnits="userSpaceOnUse" x2="46.449" gradientTransform="matrix(.00021477 -.8 -.8 .0008 -.000017325 76.204)" y1="-13.598" x1="42.724">
      <stop id="stop80" style="stop-color:#ffffff" offset="0"/>
      <stop id="stop82" style="stop-color:#c8dae3" offset="1"/>
    </linearGradient>
    <linearGradient id="linearGradient96" y2="-3.9175" gradientUnits="userSpaceOnUse" x2="43.246" gradientTransform="matrix(.00016666 -.8 -.8 .0008 -.00029260 76.204)" y1="-3.9175" x1="38.446">
      <stop id="stop98" style="stop-color:#ffffff" offset="0"/>
      <stop id="stop100" style="stop-color:#c8dae3" offset="1"/>
    </linearGradient>
    <linearGradient id="linearGradient114" y2="-6.5254" gradientUnits="userSpaceOnUse" x2="35.081" gradientTransform="matrix(.00028829 -.8 -.8 .0008 .000066059 76.204)" y1="-6.5254" x1="32.306">
      <stop id="stop116" style="stop-color:#ffffff" offset="0"/>
      <stop id="stop118" style="stop-color:#c8dae3" offset="1"/>
    </linearGradient>
    <linearGradient id="linearGradient132" y2="-140.02" gradientUnits="userSpaceOnUse" x2="13.91" gradientTransform="matrix(.00013334 -.8 -.8 .0008 .000080371 76.204)" y1="-140.02" x1="7.9097">
      <stop id="stop134" style="stop-color:#ffffff" offset="0"/>
      <stop id="stop136" style="stop-color:#c8dae3" offset="1"/>
    </linearGradient>
    <linearGradient id="linearGradient150" y2="-139.73" gradientUnits="userSpaceOnUse" x2="6.3601" gradientTransform="matrix(.00044445 -.8 -.8 .0008 .00026854 76.204)" y1="-139.73" x1="4.5601">
      <stop id="stop152" style="stop-color:#ffffff" offset="0"/>
      <stop id="stop154" style="stop-color:#c8dae3" offset="1"/>
    </linearGradient>
    <linearGradient id="linearGradient168" y2="-111.98" gradientUnits="userSpaceOnUse" x2="16.738" gradientTransform="matrix(.00010257 -.8 -.8 .0008 -.00018563 76.204)" y1="-111.98" x1="8.938">
      <stop id="stop170" style="stop-color:#ffffff" offset="0"/>
      <stop id="stop172" style="stop-color:#c8dae3" offset="1"/>
    </linearGradient>
    <linearGradient id="linearGradient186" y2="-102.96" gradientUnits="userSpaceOnUse" x2="9.1096" gradientTransform="matrix(.00032990 -.8 -.8 .0008 .00010870 76.204)" y1="-102.96" x1="6.6846">
      <stop id="stop188" style="stop-color:#ffffff" offset="0"/>
      <stop id="stop190" style="stop-color:#c8dae3" offset="1"/>
    </linearGradient>
    <linearGradient id="linearGradient204" y2="-331.15" gradientUnits="userSpaceOnUse" x2="31.519" gradientTransform="matrix(.000061069 -.8 -.8 .0008 -.00010577 76.204)" y1="-331.15" x1="18.419">
      <stop id="stop206" style="stop-color:#ffffff" offset="0"/>
      <stop id="stop208" style="stop-color:#c8dae3" offset="1"/>
    </linearGradient>
    <linearGradient id="linearGradient222" y2="-342.82" gradientUnits="userSpaceOnUse" x2="33.794" gradientTransform="matrix(.00018714 -.8 -.8 .0008 -.00022002 76.204)" y1="-342.82" x1="29.52">
      <stop id="stop224" style="stop-color:#ffffff" offset="0"/>
      <stop id="stop226" style="stop-color:#c8dae3" offset="1"/>
    </linearGradient>
    <linearGradient id="linearGradient240" y2="-376.23" gradientUnits="userSpaceOnUse" x2="34.861" gradientTransform="matrix(.00011636 -.8 -.8 .0008 .00018055 76.204)" y1="-376.23" x1="27.986">
      <stop id="stop242" style="stop-color:#ffffff" offset="0"/>
      <stop id="stop244" style="stop-color:#c8dae3" offset="1"/>
    </linearGradient>
    <linearGradient id="linearGradient258" y2="-386.92" gradientUnits="userSpaceOnUse" x2="26.226" gradientTransform="matrix(.00041558 -.8 -.8 .0008 -.00038065 76.204)" y1="-386.92" x1="24.301">
      <stop id="stop260" style="stop-color:#ffffff" offset="0"/>
      <stop id="stop262" style="stop-color:#c8dae3" offset="1"/>
    </linearGradient>
    <linearGradient id="linearGradient276" y2="-397.19" gradientUnits="userSpaceOnUse" x2="43.553" gradientTransform="matrix(.000047904 -.8 -.8 .0008 .00029240 76.204)" y1="-397.19" x1="26.853">
      <stop id="stop278" style="stop-color:#ffffff" offset="0"/>
      <stop id="stop280" style="stop-color:#c8dae3" offset="1"/>
    </linearGradient>
    <linearGradient id="linearGradient294" y2="-408.01" gradientUnits="userSpaceOnUse" x2="31.192" gradientTransform="matrix(.00026666 -.8 -.8 .0008 .00015568 76.204)" y1="-408.01" x1="28.192">
      <stop id="stop296" style="stop-color:#ffffff" offset="0"/>
      <stop id="stop298" style="stop-color:#c8dae3" offset="1"/>
    </linearGradient>
    <linearGradient id="linearGradient312" y2="-416.47" gradientUnits="userSpaceOnUse" x2="48.146" gradientTransform="matrix(.00021477 -.8 -.8 .0008 -.000017325 76.204)" y1="-416.47" x1="44.421">
      <stop id="stop314" style="stop-color:#ffffff" offset="0"/>
      <stop id="stop316" style="stop-color:#c8dae3" offset="1"/>
    </linearGradient>
    <clipPath id="clipPath324">
      <path id="path326" d="m26.922 46.444c0.824 0.695 2.133 1.535 3.918 2.519 2.293 1.254 5.359 2.414 9.199 3.481 2.16 0.613 5.336 1.465 9.52 2.558 10.136 2.961 17.535 4.934 22.203 5.922 10.531 2.215 22.066 3.785 34.597 4.719 1.149 0.082 2.786 0.199 4.922 0.359 1.785 0.215 3.332 0.68 4.641 1.403 0.851 0.453 2.293 1.386 4.316 2.8 1.789 1.278 3.27 2.184 4.442 2.719 4.082 1.84 9.226 2.918 15.441 3.238 0.957 0.055 6.277 0.067 15.957 0.043l6.402-2.402c1.84 0 4.52-0.133 8.04-0.398 3.519-0.266 6.175-0.403 7.96-0.403 1.68 0 4.243 0.055 7.68 0.16 3.016 0 5.535-0.238 7.563-0.718 2.851-0.696 5.582-1.039 8.199-1.039 3.383 0.027 7.293-0.161 11.719-0.563 1.066-0.105 4.961-0.519 11.679-1.238 14.641-1.547 25.973-5.481 34-11.801 1.442-1.144 3.602-2.984 6.481-5.519 2.64-2.079 5.054-3.442 7.238-4.079 3.496-0.988 8.27-1.961 14.32-2.921 7.176-1.094 11.989-1.918 14.442-2.481 2.988-0.664 5.414-1.68 7.281-3.039 2-1.441 3.625-3.441 4.879-6 0.453-0.906 0.828-1.707 1.121-2.398 0.266-0.293 1.133-0.551 2.598-0.762 2.586-0.375 4.722-0.852 6.402-1.442 0.641-0.238 1.508-0.464 2.598-0.679 0.722-0.375 0.867-1.199 0.441-2.481-0.348-1.093-1.625-2.027-3.84-2.8-1.679-0.637-3.961-0.93-6.84-0.879-3.253 0.187-5.613 0.281-7.082 0.281-1.812 0.027-3.254-0.027-4.32-0.16-1.516-0.215-2.906-0.614-4.16-1.2-1.172-0.667-2.039-1.121-2.598-1.363-0.933-0.426-1.922-0.597-2.961-0.515-2.746 0.211-5.906 0.304-9.48 0.277l-9.52-0.238c-4.105-0.055-7.093-0.309-8.961-0.762-2.558-0.641-3.906-0.973-4.039-1-1.441-0.344-2.785-0.559-4.039-0.641-3.226-0.183-7.48-0.785-12.758-1.797-3.418-0.668-5.347-1.082-5.8-1.242-1.707-0.558-3.321-1.597-4.844-3.117-0.984-0.988-1.93-2.336-2.84-4.043-1.144-2.238-1.934-3.652-2.359-4.238-1.973-2.883-5.731-3.336-11.278-1.36-4.828 1.758-8.402 4.039-10.722 6.84-1.946 2.426-3.133 3.758-3.559 4-1.016 0.614-2.734 0.598-5.16-0.043-3.305-1.117-5.707-1.906-7.199-2.359-2.535-0.746-5.133-0.918-7.801-0.52 0.027 0.774-0.066 1.68-0.281 2.723-0.293 1.172-0.52 2.051-0.68 2.637-1.254 0.242-2.824 0.336-4.719 0.281-2.187-0.082-3.785-0.133-4.801-0.16-1.492-0.027-3.093-0.465-4.8-1.32-2.051-1.012-3.598-1.625-4.641-1.84-2.293-0.532-4.023-0.918-5.199-1.16-2.133-0.426-3.918-0.586-5.36-0.481-1.304 0.16-2.238 0.27-2.8 0.32-0.934 0.082-1.918 0.043-2.957-0.117-2.508-0.347-4.094-0.695-4.762-1.043-1.039-0.48-2.106-1.57-3.199-3.281-1.387-2.211-3.188-3.504-5.403-3.879-0.586-0.105-2.984-0.121-7.199-0.039-3.414 0.051-5.945 0.746-7.598 2.082-1.066 0.852-2.48 2.852-4.242 6-0.851 1.52-1.785 2.426-2.8 2.719-1.438 0.133-2.719 0.265-3.84 0.398-1.758 0.242-2.957 0.973-3.598 2.199-0.934 1.762-1.707 2.856-2.32 3.282-2.242 1.629-4.856 2.48-7.84 2.558-1.789 0.082-3.027 0.055-3.723-0.078-1.117-0.187-2.211-0.68-3.277-1.48-1.387-1.254-2.375-2.121-2.961-2.602-0.934-0.797-2.094-1.277-3.481-1.437-1.414-0.133-2.945-0.082-4.601 0.16-1.918 0.293-3.344 0.773-4.277 1.437-0.614 0.453-1.149 1.375-1.602 2.762-0.426 1.359-0.984 2.25-1.68 2.68-0.718 0.48-1.718 0.679-3 0.601-1.519-0.164-2.64-0.281-3.359-0.363-2.719-0.266-4.32 0.734-4.801 3-2.027 0.27-4.57 0.375-7.64 0.32-3.438-0.133-5.985-0.199-7.641-0.199-3.332-0.16-5.984-0.172-7.957-0.039-3.574 0.266-5.949 1.145-7.121 2.641-0.906 1.144-0.989 2.359-0.239 3.64l1.958 3.36c0.585 2.238 0.015 3.679-1.719 4.32-1.332 0.504-2.078 0.801-2.239 0.879-0.8 0.453-1.32 1.121-1.562 2-0.348 1.199 0.293 2.48 1.922 3.84z" inkscape:connector-curvature="0"/>
    </clipPath>
    <clipPath id="clipPath332">
      <path id="path334" d="m-0.42664-410h96.63v380h-96.63v-380z" inkscape:connector-curvature="0"/>
    </clipPath>
    <linearGradient id="linearGradient336" y2="-220.17" gradientUnits="userSpaceOnUse" x2="94.067" y1="-220.17" x1="6.3921">
      <stop id="stop338" style="stop-color:#ffffff;stop-opacity:0.4" offset="0"/>
      <stop id="stop340" style="stop-color:#ffffff;stop-opacity:0.6" offset=".78430"/>
      <stop id="stop344" style="stop-color:#ffffff;stop-opacity:0.6" offset="1"/>
    </linearGradient>
    <mask id="mask346">
      <g id="g348">
        <g id="g350" clip-path="url(#clipPath332)">
          <path id="path352" style="fill:url(#linearGradient336)" d="m-0.42664-410h96.63v380h-96.63v-380z" inkscape:connector-curvature="0"/>
        </g>
      </g>
    </mask>
    <linearGradient id="linearGradient356" y2="-220.17" gradientUnits="userSpaceOnUse" x2="94.067" y1="-220.17" x1="6.3921">
      <stop id="stop358" style="stop-color:#ffffff" offset="0"/>
      <stop id="stop360" style="stop-color:#ccdbe3" offset=".78430"/>
      <stop id="stop364" style="stop-color:#ccdbe3" offset="1"/>
    </linearGradient>
    <linearGradient id="linearGradient380" y2="-86.089" gradientUnits="userSpaceOnUse" x2="29.114" gradientTransform="matrix(.00008696 -.8 -.8 .0008 .00025494 76.204)" y1="-86.089" x1="19.914">
      <stop id="stop382" style="stop-color:#ffffff" offset="0"/>
      <stop id="stop384" style="stop-color:#c8dae3" offset="1"/>
    </linearGradient>
    <linearGradient id="linearGradient398" y2="-100.49" gradientUnits="userSpaceOnUse" x2="30.062" gradientTransform="matrix(.0001448 -.8 -.8 .0008 .00015610 76.204)" y1="-100.49" x1="24.537">
      <stop id="stop400" style="stop-color:#ffffff" offset="0"/>
      <stop id="stop402" style="stop-color:#c8dae3" offset="1"/>
    </linearGradient>
    <linearGradient id="linearGradient416" y2="-237.78" gradientUnits="userSpaceOnUse" x2="9.4495" gradientTransform="matrix(.00031068 -.8 -.8 .0008 -.00013504 76.204)" y1="-237.78" x1="6.8745">
      <stop id="stop418" style="stop-color:#ffffff" offset="0"/>
      <stop id="stop420" style="stop-color:#c8dae3" offset="1"/>
    </linearGradient>
    <linearGradient id="linearGradient434" y2="-223.32" gradientUnits="userSpaceOnUse" x2="18.189" gradientTransform="matrix(.000090648 -.8 -.8 .0008 .000057504 76.204)" y1="-223.32" x1="9.3643">
      <stop id="stop436" style="stop-color:#ffffff" offset="0"/>
      <stop id="stop438" style="stop-color:#c8dae3" offset="1"/>
    </linearGradient>
    <linearGradient id="linearGradient452" y2="-250.17" gradientUnits="userSpaceOnUse" x2="14.762" gradientTransform="matrix(.000256 -.8 -.8 .0008 .00017665 76.204)" y1="-250.17" x1="11.637">
      <stop id="stop454" style="stop-color:#ffffff" offset="0"/>
      <stop id="stop456" style="stop-color:#c8dae3" offset="1"/>
    </linearGradient>
    <linearGradient id="linearGradient470" y2="-308.66" gradientUnits="userSpaceOnUse" x2="19.941" gradientTransform="matrix(.00012308 -.8 -.8 .0008 .00025520 76.204)" y1="-308.66" x1="13.441">
      <stop id="stop472" style="stop-color:#ffffff" offset="0"/>
      <stop id="stop474" style="stop-color:#c8dae3" offset="1"/>
    </linearGradient>
    <linearGradient id="linearGradient488" y2="-320.35" gradientUnits="userSpaceOnUse" x2="22.892" gradientTransform="matrix(.00019394 -.8 -.8 .0008 .00018360 76.204)" y1="-320.35" x1="18.767">
      <stop id="stop490" style="stop-color:#ffffff" offset="0"/>
      <stop id="stop492" style="stop-color:#c8dae3" offset="1"/>
    </linearGradient>
    <linearGradient id="linearGradient506" y2="-306.77" gradientUnits="userSpaceOnUse" x2="43.506" gradientTransform="matrix(.00021477 -.8 -.8 .0008 -.000017325 76.204)" y1="-306.77" x1="39.781">
      <stop id="stop508" style="stop-color:#ffffff" offset="0"/>
      <stop id="stop510" style="stop-color:#c8dae3" offset="1"/>
    </linearGradient>
    <linearGradient id="linearGradient524" y2="-318.1" gradientUnits="userSpaceOnUse" x2="44.769" gradientTransform="matrix(.00038554 -.8 -.8 .0008 -.00030432 76.204)" y1="-318.1" x1="42.694">
      <stop id="stop526" style="stop-color:#ffffff" offset="0"/>
      <stop id="stop528" style="stop-color:#c8dae3" offset="1"/>
    </linearGradient>
    <linearGradient id="linearGradient542" y2="-320.54" gradientUnits="userSpaceOnUse" x2="40.217" gradientTransform="matrix(.00023704 -.8 -.8 .0008 -.00038549 76.204)" y1="-320.54" x1="36.842">
      <stop id="stop544" style="stop-color:#ffffff" offset="0"/>
      <stop id="stop546" style="stop-color:#c8dae3" offset="1"/>
    </linearGradient>
    <linearGradient id="linearGradient560" y2="-285.32" gradientUnits="userSpaceOnUse" x2="39.415" gradientTransform="matrix(.00057143 -.8 -.8 .0008 -.00032994 76.204)" y1="-285.32" x1="38.015">
      <stop id="stop562" style="stop-color:#ffffff" offset="0"/>
      <stop id="stop564" style="stop-color:#c8dae3" offset="1"/>
    </linearGradient>
    <linearGradient id="linearGradient578" y2="-178.72" gradientUnits="userSpaceOnUse" x2="49.046" gradientTransform="matrix(.00051613 -.8 -.8 .0008 -.00027826 76.204)" y1="-178.72" x1="47.496">
      <stop id="stop580" style="stop-color:#ffffff" offset="0"/>
      <stop id="stop582" style="stop-color:#c8dae3" offset="1"/>
    </linearGradient>
    <linearGradient id="linearGradient596" y2="-191.05" gradientUnits="userSpaceOnUse" x2="48.984" gradientTransform="matrix(.00037210 -.8 -.8 .0008 .00016605 76.204)" y1="-191.05" x1="46.834">
      <stop id="stop598" style="stop-color:#ffffff" offset="0"/>
      <stop id="stop600" style="stop-color:#c8dae3" offset="1"/>
    </linearGradient>
    <linearGradient id="linearGradient614" y2="-185.24" gradientUnits="userSpaceOnUse" x2="42.527" gradientTransform="matrix(.00016931 -.8 -.8 .0008 -.00027716 76.204)" y1="-185.24" x1="37.802">
      <stop id="stop616" style="stop-color:#ffffff" offset="0"/>
      <stop id="stop618" style="stop-color:#c8dae3" offset="1"/>
    </linearGradient>
    <linearGradient id="linearGradient632" y2="-164.77" gradientUnits="userSpaceOnUse" x2="42.098" gradientTransform="matrix(.000256 -.8 -.8 .0008 .00017665 76.204)" y1="-164.77" x1="38.973">
      <stop id="stop634" style="stop-color:#ffffff" offset="0"/>
      <stop id="stop636" style="stop-color:#c8dae3" offset="1"/>
    </linearGradient>
    <linearGradient id="linearGradient650" y2="-139.06" gradientUnits="userSpaceOnUse" x2="41.211" gradientTransform="matrix(.00036364 -.8 -.8 .0008 -.00013891 76.204)" y1="-139.06" x1="39.011">
      <stop id="stop652" style="stop-color:#ffffff" offset="0"/>
      <stop id="stop654" style="stop-color:#c8dae3" offset="1"/>
    </linearGradient>
    <linearGradient id="linearGradient668" y2="-114.17" gradientUnits="userSpaceOnUse" x2="40.186" gradientTransform="matrix(.00136 -.8 -.8 .0008 .000027215 76.204)" y1="-114.17" x1="39.585">
      <stop id="stop670" style="stop-color:#ffffff" offset="0"/>
      <stop id="stop672" style="stop-color:#c8dae3" offset="1"/>
    </linearGradient>
  </defs>
  <g id="g10" transform="matrix(1.25 0 0 -1.25 0 95.271)">
    <g id="g12">
      <g id="g14">
        <g id="g16">
          <g id="g22">
            <path id="path30" style="fill-rule:evenodd;fill:url(#linearGradient24)" d="m41.961 56.842c1.199 0.11 2.117-0.066 2.758-0.519 0.746-0.504 0.933-1.293 0.562-2.36-0.429-1.148-1.336-1.945-2.722-2.398-1.094-0.348-2.371-0.453-3.84-0.321-1.305 0.028-2.321 0.106-3.039 0.239-1.36 0.293-1.946 0.894-1.758 1.801 0.133 0.64 0.945 1.242 2.437 1.8 0.801 0.293 1.868 0.614 3.2 0.961l2.402 0.797z" inkscape:connector-curvature="0"/>
          </g>
        </g>
      </g>
      <g id="g32">
        <g id="g34">
          <g id="g40">
            <path id="path48" style="fill-rule:evenodd;fill:url(#linearGradient42)" d="m25.961 50.444 4.801-3.602c0.05-0.851-0.387-1.797-1.321-2.84-0.882-0.957-1.773-1.586-2.679-1.879-0.453-0.16-1.176-0.254-2.16-0.281-1.043-0.027-1.774-0.094-2.204-0.199-0.343-0.106-0.757-0.293-1.238-0.559-0.508-0.293-0.894-0.48-1.16-0.558-1.066-0.348-2.039-0.254-2.922 0.277-0.476 0.293-1.226 0.973-2.238 2.039-0.375 0.481-0.613 0.774-0.719 0.883-0.082 0.078-0.426 0.184-1.043 0.32-0.344 0.078-0.824 0.106-1.437 0.078-0.668-0.05-1.149-0.078-1.442-0.078-1.492-0.136-2.679-0.16-3.558-0.082-1.68 0.106-2.188 0.641-1.52 1.602 0.371 0.504 1.399 1.117 3.078 1.84 1.387 0.558 2.508 0.945 3.36 1.16 0.375 0.078 0.906 0.144 1.601 0.199 0.746 0.051 1.281 0.105 1.602 0.16 0.293 0.055 0.652 0.215 1.078 0.481 0.48 0.32 0.801 0.504 0.961 0.558 1.172 0.426 2.679 0.629 4.519 0.602 1.039 0 2.586-0.039 4.641-0.121z" inkscape:connector-curvature="0"/>
          </g>
        </g>
      </g>
      <g id="g50">
        <g id="g52">
          <g id="g58">
            <path id="path66" style="fill-rule:evenodd;fill:url(#linearGradient60)" d="m23.961 39.643 0.801 1.601c-0.028-0.402 0.172-0.734 0.597-1 0.43-0.265 0.629-0.601 0.602-1 0-0.828-0.668-1.359-2-1.601-2.746-0.586-4.149 0.066-4.199 1.961 1.543 0.133 2.945 0.148 4.199 0.039z" inkscape:connector-curvature="0"/>
          </g>
        </g>
      </g>
      <g id="g68">
        <g id="g70">
          <g id="g76">
            <path id="path84" style="fill-rule:evenodd;fill:url(#linearGradient78)" d="m12.359 42.045c0.879-0.562 0.829-1.203-0.16-1.922-0.961-0.718-1.851-0.851-2.679-0.398-0.426 0.238-0.665 0.437-0.719 0.598-0.028 0.16 0.051 0.468 0.238 0.921 0.266 0.559 0.75 0.852 1.441 0.879 0.399 0.028 1.028 0 1.879-0.078z" inkscape:connector-curvature="0"/>
          </g>
        </g>
      </g>
      <g id="g86">
        <g id="g88">
          <g id="g94">
            <path id="path102" style="fill-rule:evenodd;fill:url(#linearGradient96)" d="m1.68 44.963c0.879 0.563 1.828 0.774 2.84 0.641 1.148-0.133 1.734-0.613 1.761-1.442 0.024-0.824-0.508-1.398-1.601-1.718-0.481-0.16-1.266-0.227-2.36-0.2-1.148 0.028-1.922 0.145-2.32 0.36 0.188 0.988 0.746 1.773 1.68 2.359z" inkscape:connector-curvature="0"/>
          </g>
        </g>
      </g>
      <g id="g104">
        <g id="g106">
          <g id="g112">
            <path id="path120" style="fill-rule:evenodd;fill:url(#linearGradient114)" d="m5.16 50.444h1.199c0.829-0.746 0.735-1.305-0.281-1.68-0.773-0.266-1.598-0.359-2.476-0.281-0.137 0.508-0.028 0.949 0.32 1.32 0.293 0.375 0.703 0.586 1.238 0.641z" inkscape:connector-curvature="0"/>
          </g>
        </g>
      </g>
      <g id="g122">
        <g id="g124">
          <g id="g130">
            <path id="path138" style="fill-rule:evenodd;fill:url(#linearGradient132)" d="m111.52 66.045c-1.067-0.136-1.918-0.23-2.559-0.281-1.199-0.082-1.988 0.105-2.359 0.559-0.696 0.906-0.188 1.761 1.519 2.562 1.277 0.613 2.492 0.973 3.641 1.078 1.117 0.082 2.332-0.054 3.636-0.398 1.657-0.426 2.43-1.067 2.321-1.922-0.106-1.094-0.973-1.68-2.598-1.758-1.867 0.106-3.066 0.16-3.601 0.16z" inkscape:connector-curvature="0"/>
          </g>
        </g>
      </g>
      <g id="g140">
        <g id="g142">
          <g id="g148">
            <path id="path156" style="fill-rule:evenodd;fill:url(#linearGradient150)" d="m110.76 72.045 0.797 0.399c0.187 0.054 0.695 0.039 1.519-0.039 0.16-0.375 0.16-0.746 0-1.121-0.957-0.079-1.851-0.067-2.68 0.039-0.078 0.32 0.043 0.562 0.364 0.722z" inkscape:connector-curvature="0"/>
          </g>
        </g>
      </g>
      <g id="g158">
        <g id="g160">
          <g id="g166">
            <path id="path174" style="fill-rule:evenodd;fill:url(#linearGradient168)" d="m96.359 69.244 1.2-1.601c0.136-2.293-1.387-3.574-4.559-3.84-3.762 0.16-6.199 0.242-7.32 0.242-1.442 0-2.535 0.133-3.282 0.399-1.144 0.425-1.05 1.093 0.282 2 1.308 0.879 3.734 1.668 7.281 2.359 1.945 0.348 4.078 0.496 6.398 0.441z" inkscape:connector-curvature="0"/>
          </g>
        </g>
      </g>
      <g id="g176">
        <g id="g178">
          <g id="g184">
            <path id="path192" style="fill-rule:evenodd;fill:url(#linearGradient186)" d="m82.359 70.045 2 0.797c0.133-0.906-0.332-1.453-1.398-1.637-0.723-0.109-1.586-0.066-2.602 0.118 0.375 0.48 1.039 0.722 2 0.722z" inkscape:connector-curvature="0"/>
          </g>
        </g>
      </g>
      <g id="g194">
        <g id="g196">
          <g id="g202">
            <path id="path210" style="fill-rule:evenodd;fill:url(#linearGradient204)" d="m274 52.444c-3.492-0.028-8.625 0.359-15.398 1.16-4.028 0.48-7.122 1.039-9.282 1.68-0.64 0.132-1.082 0.242-1.32 0.32-0.375 0.16-0.652 0.441-0.84 0.84l3.598 5.199c3.867 0 6.496-0.051 7.883-0.16 2.851-0.184 5.437-0.625 7.757-1.321 1.575-0.48 4-1.066 7.282-1.757 2.933-0.696 5.265-1.563 7-2.602 2.695-1.574 2.668-2.598-0.078-3.078-1.094-0.188-3.297-0.281-6.602-0.281z" inkscape:connector-curvature="0"/>
          </g>
        </g>
      </g>
      <g id="g212">
        <g id="g214">
          <g id="g220">
            <path id="path228" style="fill-rule:evenodd;fill:url(#linearGradient222)" d="m273.56 52.444 3.601-0.399c0-0.297 0.016-0.722 0.039-1.281 0-0.48-0.144-0.828-0.437-1.039-0.293-0.242-1.028-0.32-2.203-0.242-1.118 0.082-1.879 0.226-2.278 0.441-0.961 0.535-1.203 1.012-0.722 1.442 0.054 0.05 0.722 0.41 2 1.078z" inkscape:connector-curvature="0"/>
          </g>
        </g>
      </g>
      <g id="g230">
        <g id="g232">
          <g id="g238">
            <path id="path246" style="fill-rule:evenodd;fill:url(#linearGradient240)" d="m295.08 52.842c0.777 0.188 2.176 0.43 4.203 0.723 3.039 0.453 6.078 0.183 9.117-0.801 1.707-0.586 2.297-1.348 1.762-2.281-0.508-0.852-1.508-1.36-3-1.52-0.855-0.078-1.972-0.066-3.359 0.039-1.707 0.16-2.828 0.242-3.36 0.242-2.027-0.16-3.734-0.214-5.121-0.16-2.613 0.106-3.84 0.664-3.679 1.68 0.16 0.852 1.304 1.547 3.437 2.078z" inkscape:connector-curvature="0"/>
          </g>
        </g>
      </g>
      <g id="g248">
        <g id="g250">
          <g id="g256">
            <path id="path264" style="fill-rule:evenodd;fill:url(#linearGradient258)" d="m307.96 55.643 0.801 0.801c0.316 0 0.945 0.015 1.879 0.039 0.773-0.106 1.066-0.504 0.882-1.199-1.656-0.215-2.988-0.2-4 0.039-0.003 0.242 0.145 0.347 0.438 0.32z" inkscape:connector-curvature="0"/>
          </g>
        </g>
      </g>
      <g id="g266">
        <g id="g268">
          <g id="g274">
            <path id="path282" style="fill-rule:evenodd;fill:url(#linearGradient276)" d="m328.2 50.045c3.094-1.547 4.281-2.922 3.559-4.121-0.453-0.773-1.36-1.133-2.719-1.082-1.867 0.082-2.891 0.094-3.078 0.043-0.32-0.109-0.856-0.375-1.602-0.801-0.64-0.402-1.214-0.64-1.718-0.718-0.453-0.082-1.629-0.122-3.52-0.122-3.519 0-5.762 0.028-6.719 0.079-2.507 0.136-4.722 0.468-6.64 1-0.883 0.269-1.442 0.468-1.684 0.601-0.582 0.375-0.691 0.84-0.316 1.399 0.211 0.32 0.734 0.519 1.558 0.601 0.453 0.055 1.039 0.106 1.758 0.16-0.476 0.106-0.758 0.465-0.84 1.078-0.05 0.27-0.066 0.801-0.039 1.602 0.215 5.84 5.453 6.785 15.723 2.84 3.492-1.36 5.586-2.215 6.277-2.559z" inkscape:connector-curvature="0"/>
          </g>
        </g>
      </g>
      <g id="g284">
        <g id="g286">
          <g id="g292">
            <path id="path300" style="fill-rule:evenodd;fill:url(#linearGradient294)" d="m327.48 53.405c1.282 0.054 2.122-0.094 2.52-0.442 1.094-0.933 0.281-1.48-2.441-1.64-2.719-0.133-4.454 0.109-5.2 0.722l2.399 1.199c0.402 0 1.308 0.055 2.722 0.161z" inkscape:connector-curvature="0"/>
          </g>
        </g>
      </g>
      <g id="g302">
        <g id="g304">
          <g id="g310">
            <path id="path318" style="fill-rule:evenodd;fill:url(#linearGradient312)" d="m332.36 40.444h5.602c0.453-1.735-0.773-2.602-3.68-2.602-0.906 0-2.883 0.227-5.922 0.684-0.183 0.797 0.27 1.359 1.364 1.679 0.797 0.239 1.679 0.321 2.636 0.239z" inkscape:connector-curvature="0"/>
          </g>
        </g>
      </g>
      <g id="g320">
        <g id="g322" clip-path="url(#clipPath324)">
          <g id="g328" transform="matrix(.0000091248 -.8 -.8 .0008 .00016755 76.204)">
            <g id="g354" mask="url(#mask346)">
              <path id="path366" style="fill-rule:evenodd;fill:url(#linearGradient356)" d="m26.922 46.444c0.824 0.695 2.133 1.535 3.918 2.519 2.293 1.254 5.359 2.414 9.199 3.481 2.16 0.613 5.336 1.465 9.52 2.558 10.136 2.961 17.535 4.934 22.203 5.922 10.531 2.215 22.066 3.785 34.597 4.719 1.149 0.082 2.786 0.199 4.922 0.359 1.785 0.215 3.332 0.68 4.641 1.403 0.851 0.453 2.293 1.386 4.316 2.8 1.789 1.278 3.27 2.184 4.442 2.719 4.082 1.84 9.226 2.918 15.441 3.238 0.957 0.055 6.277 0.067 15.957 0.043l6.402-2.402c1.84 0 4.52-0.133 8.04-0.398 3.519-0.266 6.175-0.403 7.96-0.403 1.68 0 4.243 0.055 7.68 0.16 3.016 0 5.535-0.238 7.563-0.718 2.851-0.696 5.582-1.039 8.199-1.039 3.383 0.027 7.293-0.161 11.719-0.563 1.066-0.105 4.961-0.519 11.679-1.238 14.641-1.547 25.973-5.481 34-11.801 1.442-1.144 3.602-2.984 6.481-5.519 2.64-2.079 5.054-3.442 7.238-4.079 3.496-0.988 8.27-1.961 14.32-2.921 7.176-1.094 11.989-1.918 14.442-2.481 2.988-0.664 5.414-1.68 7.281-3.039 2-1.441 3.625-3.441 4.879-6 0.453-0.906 0.828-1.707 1.121-2.398 0.266-0.293 1.133-0.551 2.598-0.762 2.586-0.375 4.722-0.852 6.402-1.442 0.641-0.238 1.508-0.464 2.598-0.679 0.722-0.375 0.867-1.199 0.441-2.481-0.348-1.093-1.625-2.027-3.84-2.8-1.679-0.637-3.961-0.93-6.84-0.879-3.253 0.187-5.613 0.281-7.082 0.281-1.812 0.027-3.254-0.027-4.32-0.16-1.516-0.215-2.906-0.614-4.16-1.2-1.172-0.667-2.039-1.121-2.598-1.363-0.933-0.426-1.922-0.597-2.961-0.515-2.746 0.211-5.906 0.304-9.48 0.277l-9.52-0.238c-4.105-0.055-7.093-0.309-8.961-0.762-2.558-0.641-3.906-0.973-4.039-1-1.441-0.344-2.785-0.559-4.039-0.641-3.226-0.183-7.48-0.785-12.758-1.797-3.418-0.668-5.347-1.082-5.8-1.242-1.707-0.558-3.321-1.597-4.844-3.117-0.984-0.988-1.93-2.336-2.84-4.043-1.144-2.238-1.934-3.652-2.359-4.238-1.973-2.883-5.731-3.336-11.278-1.36-4.828 1.758-8.402 4.039-10.722 6.84-1.946 2.426-3.133 3.758-3.559 4-1.016 0.614-2.734 0.598-5.16-0.043-3.305-1.117-5.707-1.906-7.199-2.359-2.535-0.746-5.133-0.918-7.801-0.52 0.027 0.774-0.066 1.68-0.281 2.723-0.293 1.172-0.52 2.051-0.68 2.637-1.254 0.242-2.824 0.336-4.719 0.281-2.187-0.082-3.785-0.133-4.801-0.16-1.492-0.027-3.093-0.465-4.8-1.32-2.051-1.012-3.598-1.625-4.641-1.84-2.293-0.532-4.023-0.918-5.199-1.16-2.133-0.426-3.918-0.586-5.36-0.481-1.304 0.16-2.238 0.27-2.8 0.32-0.934 0.082-1.918 0.043-2.957-0.117-2.508-0.347-4.094-0.695-4.762-1.043-1.039-0.48-2.106-1.57-3.199-3.281-1.387-2.211-3.188-3.504-5.403-3.879-0.586-0.105-2.984-0.121-7.199-0.039-3.414 0.051-5.945 0.746-7.598 2.082-1.066 0.852-2.48 2.852-4.242 6-0.851 1.52-1.785 2.426-2.8 2.719-1.438 0.133-2.719 0.265-3.84 0.398-1.758 0.242-2.957 0.973-3.598 2.199-0.934 1.762-1.707 2.856-2.32 3.282-2.242 1.629-4.856 2.48-7.84 2.558-1.789 0.082-3.027 0.055-3.723-0.078-1.117-0.187-2.211-0.68-3.277-1.48-1.387-1.254-2.375-2.121-2.961-2.602-0.934-0.797-2.094-1.277-3.481-1.437-1.414-0.133-2.945-0.082-4.601 0.16-1.918 0.293-3.344 0.773-4.277 1.437-0.614 0.453-1.149 1.375-1.602 2.762-0.426 1.359-0.984 2.25-1.68 2.68-0.718 0.48-1.718 0.679-3 0.601-1.519-0.164-2.64-0.281-3.359-0.363-2.719-0.266-4.32 0.734-4.801 3-2.027 0.27-4.57 0.375-7.64 0.32-3.438-0.133-5.985-0.199-7.641-0.199-3.332-0.16-5.984-0.172-7.957-0.039-3.574 0.266-5.949 1.145-7.121 2.641-0.906 1.144-0.989 2.359-0.239 3.64l1.958 3.36c0.585 2.238 0.015 3.679-1.719 4.32-1.332 0.504-2.078 0.801-2.239 0.879-0.8 0.453-1.32 1.121-1.562 2-0.348 1.199 0.293 2.48 1.922 3.84z" inkscape:connector-curvature="0"/>
            </g>
          </g>
        </g>
      </g>
      <path id="path368" style="fill-rule:evenodd;fill:#ccd8e0" d="m116.32 9.846c-0.855 1.52-1.785 2.426-2.8 2.719-1.442 0.133-2.719 0.265-3.84 0.398-1.758 0.242-2.961 0.973-3.602 2.199-0.933 1.762-1.703 2.856-2.316 3.282-2.242 1.629-4.856 2.48-7.84 2.558-1.789 0.082-3.027 0.055-3.723-0.078-1.121-0.187-2.211-0.68-3.277-1.48-1.387-1.254-2.375-2.121-2.961-2.602-0.934-0.797-2.094-1.277-3.481-1.437-1.414-0.133-2.949-0.082-4.601 0.16-1.918 0.293-3.348 0.773-4.277 1.437-0.614 0.453-1.149 1.375-1.602 2.762-0.426 1.359-0.988 2.25-1.68 2.68-0.718 0.48-1.718 0.679-3 0.601-1.519-0.164-2.64-0.281-3.359-0.363-2.723-0.266-4.32 0.734-4.801 3-2.027 0.27-4.574 0.375-7.64 0.32-3.442-0.133-5.985-0.199-7.641-0.199-3.199-0.133-5.758-0.144-7.68-0.039-3.465 0.238-5.84 1.027-7.121 2.359 1.789-0.507 4.844-0.558 9.16-0.16 3.735 0.348 8.641 0.883 14.723 1.602 4.293 0.293 6.664-0.242 7.117-1.602 0.563-1.679 1.281-2.707 2.16-3.082 0.934-0.398 2.176-0.078 3.723 0.961 1.812 1.203 3.519 1.973 5.117 2.32 1.817 0.403 2.602-0.027 2.363-1.281-0.296-1.437-0.082-3.117 0.637-5.039 0.801-2.078 1.828-3.238 3.082-3.48 0.934-0.188 2.801 0.586 5.602 2.32 3.25 2.027 5.652 3.215 7.199 3.559 2.48 0.535 5.906 0.066 10.277-1.399 4.457-1.519 7.067-3.187 7.84-5 0.563-1.281 2.121-2.68 4.684-4.199 3.172-1.895 5.531-3.695 7.078-5.402 2.293-2.532 5.332-3.961 9.121-4.278 3.574-0.293 6.211 0.41 7.918 2.117 2.586 2.586 4.016 3.961 4.281 4.122 1.735 1.171 4.227 1.757 7.481 1.757 6.933 0 13.504 1.243 19.718 3.719 3.039 1.227 5.907 2.188 8.602 2.883 3.227 0.828 5.691 1.117 7.398 0.879 1.414-0.211 2.028-1.238 1.84-3.078-0.183-2.215-0.094-3.508 0.281-3.883 0.668-0.664 1.934-0.84 3.801-0.52 1.121 0.16 3.051 0.52 5.801 1.082 1.441 0.161 3.238 1.028 5.398 2.602 1.922 0.851 3.852-0.016 5.801-2.602 2.586-3.441 4.946-5.933 7.078-7.48 2.481-1.785 5.11-2.68 7.883-2.68 2.348 0 4.719 1.531 7.117 4.598 0.164 0.242 1.055 1.48 2.684 3.723 0.984 1.382 1.797 2.343 2.437 2.878 2.75 2.293 4.641 3.692 5.68 4.2 3.016 1.468 7.176 2.199 12.481 2.199 4.269 0 9.683 0.426 16.242 1.281 5.812 0.746 9.64 1.039 11.48 0.883 1.973-0.188 4.973-0.547 9-1.082 3.332-0.32 5.668-0.149 7 0.519 1.867 0.934 3.961 1.641 6.282 2.122 2.824 0.613 5.707 0.796 8.636 0.558 4.242-0.348 6.949-0.426 8.121-0.242 2.536 0.43 4.496 1.883 5.879 4.359 0.961-0.211 1.551-0.437 1.762-0.679 0.398-0.399 0.426-1.133 0.082-2.2-0.348-1.093-1.629-2.027-3.844-2.8-1.679-0.637-3.957-0.93-6.84-0.879-3.25 0.187-5.613 0.281-7.078 0.281-1.812 0.027-3.254-0.027-4.32-0.16-1.52-0.215-2.906-0.613-4.16-1.199-1.172-0.668-2.039-1.122-2.602-1.364-0.929-0.425-1.918-0.597-2.957-0.515-2.746 0.211-5.906 0.304-9.48 0.277l-9.52-0.234c-4.109-0.055-7.094-0.309-8.961-0.762-2.558-0.641-3.906-0.973-4.039-1-1.441-0.344-2.789-0.559-4.043-0.641-3.222-0.183-7.476-0.785-12.758-1.797-3.414-0.668-5.347-1.082-5.8-1.242-1.707-0.558-3.321-1.597-4.84-3.117-0.985-0.988-1.934-2.336-2.84-4.043-1.145-2.238-1.934-3.652-2.359-4.238-1.973-2.883-5.735-3.336-11.282-1.36-4.824 1.758-8.398 4.039-10.718 6.84-1.95 2.426-3.133 3.758-3.559 4-1.016 0.614-2.734 0.598-5.16-0.043-3.309-1.117-5.707-1.906-7.203-2.359-2.532-0.746-5.133-0.918-7.797-0.52 0.027 0.774-0.067 1.68-0.281 2.723-0.293 1.172-0.52 2.051-0.68 2.637-1.254 0.242-2.828 0.336-4.723 0.281-2.183-0.082-3.785-0.133-4.797-0.16-1.492-0.027-3.093-0.465-4.8-1.32-2.055-1.012-3.602-1.625-4.641-1.84-2.293-0.532-4.027-0.918-5.199-1.16-2.133-0.426-3.922-0.586-5.36-0.481-1.308 0.16-2.242 0.27-2.8 0.32-0.934 0.082-1.922 0.043-2.961-0.117-2.504-0.347-4.094-0.695-4.758-1.043-1.043-0.48-2.11-1.57-3.203-3.281-1.387-2.211-3.184-3.504-5.399-3.879-0.586-0.105-2.988-0.121-7.199-0.039-3.414 0.051-5.945 0.746-7.602 2.082-1.066 0.852-2.48 2.852-4.238 6h-0.004z" inkscape:connector-curvature="0"/>
      <g id="g370">
        <g id="g372">
          <g id="g378">
            <path id="path386" style="fill-rule:evenodd;fill:url(#linearGradient380)" d="m79.84 59.963 0.519-3.719c0.403-2.48-2.945-3.628-10.039-3.441-4.879 0.133-9.16 0.602-12.84 1.402-0.292 1.118-0.066 2.161 0.68 3.118 0.508 0.64 1.36 1.336 2.559 2.082 1.359 0.851 2.562 1.304 3.601 1.359 0.266 0.027 1.52-0.066 3.758-0.281 3.363-0.344 7.281-0.52 11.762-0.52z" inkscape:connector-curvature="0"/>
          </g>
        </g>
      </g>
      <g id="g388">
        <g id="g390">
          <g id="g396">
            <path id="path404" style="fill-rule:evenodd;fill:url(#linearGradient398)" d="m82.48 56.764 3.2-1.082c0.425-1.57-0.961-2.691-4.16-3.359-3.094-0.641-5.067-0.559-5.918 0.242-0.668 0.613-0.75 1.304-0.243 2.078 0.403 0.641 1.039 1.172 1.922 1.601 0.692 0.348 1.547 0.532 2.559 0.559 0.558 0.027 1.441 0.016 2.64-0.039z" inkscape:connector-curvature="0"/>
          </g>
        </g>
      </g>
      <g id="g406">
        <g id="g408">
          <g id="g414">
            <path id="path422" style="fill-rule:evenodd;fill:url(#linearGradient416)" d="m192.88 70.643v-2.16c-1.172-0.024-2.051-0.039-2.641-0.039-1.039 0-1.906 0.054-2.597 0.16-0.293 1.094 0.304 1.762 1.8 2 0.184 0.027 1.332 0.039 3.438 0.039z" inkscape:connector-curvature="0"/>
          </g>
        </g>
      </g>
      <g id="g424">
        <g id="g426">
          <g id="g432">
            <path id="path440" style="fill-rule:evenodd;fill:url(#linearGradient434)" d="m182 69.045 2.281-1.601c0.133-3.121-0.801-5.012-2.801-5.68-0.402-0.133-2.039-0.199-4.921-0.199-0.825-0.133-1.481-0.199-1.957-0.199-0.907 0.05-1.426 0.476-1.563 1.277-0.105 0.773 0.16 1.574 0.801 2.402 0.348 0.453 0.816 0.985 1.402 1.598 0.957 1.254 2.024 2.016 3.199 2.281 0.375 0.078 1.559 0.121 3.559 0.121z" inkscape:connector-curvature="0"/>
          </g>
        </g>
      </g>
      <g id="g442">
        <g id="g444">
          <g id="g450">
            <path id="path458" style="fill-rule:evenodd;fill:url(#linearGradient452)" d="m197.16 66.885 4.801-0.519c0.691 0.105 1.187-0.067 1.48-0.524 0.321-0.453 0.321-0.957 0-1.519-0.933-0.211-2.066-0.211-3.402 0-1.199 0.187-2.305 0.496-3.316 0.921-0.243 0.586-0.094 1.133 0.437 1.641z" inkscape:connector-curvature="0"/>
          </g>
        </g>
      </g>
      <g id="g460">
        <g id="g462">
          <g id="g468">
            <path id="path476" style="fill-rule:evenodd;fill:url(#linearGradient470)" d="m255.28 61.045-0.519-1.082h-10.762c-1.945 0.028-3.426 0.321-4.441 0.879-1.387 0.774-1.305 1.906 0.242 3.402 0.851 0.825 2.32 1.282 4.398 1.36 0.961 0.027 2.559-0.067 4.801-0.281 1.414-0.133 2.602-0.614 3.559-1.438 0.589-0.508 1.496-1.453 2.722-2.84z" inkscape:connector-curvature="0"/>
          </g>
        </g>
      </g>
      <g id="g478">
        <g id="g480">
          <g id="g486">
            <path id="path494" style="fill-rule:evenodd;fill:url(#linearGradient488)" d="m261.68 60.483c0-1.332-0.028-2.184-0.078-2.559-2.454-0.347-4.657-0.426-6.602-0.242-3.281 0.297-4.602 1.348-3.961 3.16 0.801 0.27 1.934 0.387 3.402 0.363 0.825-0.027 2-0.082 3.52-0.16l3.719-0.562z" inkscape:connector-curvature="0"/>
          </g>
        </g>
      </g>
      <g id="g496">
        <g id="g498">
          <g id="g504">
            <path id="path512" style="fill-rule:evenodd;fill:url(#linearGradient506)" d="m252.64 43.444-8-2.16c-1.762-0.133-3.133-0.188-4.121-0.161-1.813 0.055-2.559 0.559-2.239 1.52 0.453 1.336 2.692 1.883 6.719 1.641 2.105-0.106 4.652-0.387 7.641-0.84z" inkscape:connector-curvature="0"/>
          </g>
        </g>
      </g>
      <g id="g514">
        <g id="g516">
          <g id="g522">
            <path id="path530" style="fill-rule:evenodd;fill:url(#linearGradient524)" d="m254.76 41.842 1.597-1.078c-0.425-0.398-1.027-0.613-1.8-0.641-0.637-0.027-1.278 0.082-1.918 0.321 0.027 0.586 0.238 1 0.64 1.238 0.399 0.242 0.895 0.297 1.481 0.16z" inkscape:connector-curvature="0"/>
          </g>
        </g>
      </g>
      <g id="g532">
        <g id="g534">
          <g id="g540">
            <path id="path548" style="fill-rule:evenodd;fill:url(#linearGradient542)" d="m254.2 46.205c0.535 0.454 1.254 0.598 2.16 0.438l2.68-1.598c-0.16-0.773-0.851-1.203-2.078-1.281-1.203-0.082-2.066 0.16-2.602 0.719-0.64 0.668-0.691 1.242-0.16 1.722z" inkscape:connector-curvature="0"/>
          </g>
        </g>
      </g>
      <g id="g550">
        <g id="g552">
          <g id="g558">
            <path id="path566" style="fill-rule:evenodd;fill:url(#linearGradient560)" d="m229.68 45.565v-1.082c-0.746-0.051-1.254-0.067-1.52-0.039-0.558 0.054-0.984 0.254-1.281 0.601 0.269 0.344 0.68 0.547 1.242 0.598 0.211 0 0.731-0.027 1.559-0.078z" inkscape:connector-curvature="0"/>
          </g>
        </g>
      </g>
      <g id="g568">
        <g id="g570">
          <g id="g576">
            <path id="path584" style="fill-rule:evenodd;fill:url(#linearGradient578)" d="m144.36 38.084 2.121-1.039c-1.652-0.16-2.949-0.242-3.878-0.242-1.707 0-2.735 0.359-3.082 1.082 0.613 0.211 1.414 0.32 2.402 0.32 0.558-0.027 1.371-0.066 2.437-0.121z" inkscape:connector-curvature="0"/>
          </g>
        </g>
      </g>
      <g id="g586">
        <g id="g588">
          <g id="g594">
            <path id="path602" style="fill-rule:evenodd;fill:url(#linearGradient596)" d="m152.88 38.643 3.199-0.559c-1.09-1.254-3.238-1.574-6.437-0.961 0.16 0.668 0.574 1.133 1.238 1.403 0.586 0.238 1.254 0.277 2 0.117z" inkscape:connector-curvature="0"/>
          </g>
        </g>
      </g>
      <g id="g604">
        <g id="g606">
          <g id="g612">
            <path id="path620" style="fill-rule:evenodd;fill:url(#linearGradient614)" d="m153.44 42.885c-0.855-0.801-2.613-1.082-5.281-0.84-2.508 0.239-4.238 0.703-5.199 1.399 0.504 0.988 1.68 1.707 3.519 2.16 1.36 0.348 2.786 0.508 4.282 0.48l2.679-3.199z" inkscape:connector-curvature="0"/>
          </g>
        </g>
      </g>
      <g id="g622">
        <g id="g624">
          <g id="g630">
            <path id="path638" style="fill-rule:evenodd;fill:url(#linearGradient632)" d="m132.64 45.045 1.597-2.679c-1.226 0.023-2.211 0.117-2.957 0.277-1.414 0.32-2.027 0.973-1.84 1.961 0.692 0.398 1.758 0.547 3.2 0.441z" inkscape:connector-curvature="0"/>
          </g>
        </g>
      </g>
      <g id="g640">
        <g id="g642">
          <g id="g648">
            <path id="path656" style="fill-rule:evenodd;fill:url(#linearGradient650)" d="m108.08 45.045 6.402-1.082c-0.265-0.664-1.453-0.945-3.558-0.84-2.137 0.106-3.082 0.746-2.844 1.922z" inkscape:connector-curvature="0"/>
          </g>
        </g>
      </g>
      <g id="g658">
        <g id="g660">
          <g id="g666">
            <path id="path674" style="fill-rule:evenodd;fill:url(#linearGradient668)" d="m91.559 44.483v-0.52c-0.454 0.028-0.454 0.199 0 0.52z" inkscape:connector-curvature="0"/>
          </g>
        </g>
      </g>
    </g>
  </g>
<metadata><rdf:RDF><cc:Work><dc:format>image/svg+xml</dc:format><dc:type rdf:resource="http://purl.org/dc/dcmitype/StillImage"/><cc:license rdf:resource="http://creativecommons.org/licenses/publicdomain/"/><dc:publisher><cc:Agent rdf:about="http://openclipart.org/"><dc:title>Openclipart</dc:title></cc:Agent></dc:publisher></cc:Work><cc:License rdf:about="http://creativecommons.org/licenses/publicdomain/"><cc:permits rdf:resource="http://creativecommons.org/ns#Reproduction"/><cc:permits rdf:resource="http://creativecommons.org/ns#Distribution"/><cc:permits rdf:resource="http://creativecommons.org/ns#DerivativeWorks"/></cc:License></rdf:RDF></metadata></svg>
