<svg viewBox="0 0 393 153" fill="none" xmlns="http://www.w3.org/2000/svg">
<g clip-path="url(#clip0_2_2)">
<path d="M59.8021 64.1054C59.1757 70.7961 58.5492 77.4867 57.5347 84.7743C57.2047 86.2812 57.2628 87.1913 57.3209 88.1013C55.7762 89.4267 54.4418 91.3783 52.6537 91.9785C38.3428 96.7826 31.3409 108.601 34.5025 125.253C44.8493 115.896 54.5718 107.105 64.9614 98.1379C66.4184 97.975 67.2082 97.9872 68.2935 98.1476C70.7254 100.529 72.8619 102.762 75.045 105.313C75.7286 106.088 76.3657 106.544 77.2994 107.151C81.7307 111.533 85.8653 115.767 89.9999 120.333C89.999 121.111 89.9983 121.556 89.6978 122.152C88.2543 123.907 87.1105 125.511 85.9666 127.115C85.8007 127.102 85.5778 127.154 85.4769 127.066C78.0922 120.628 71.523 123.97 64.2343 127.936C52.1439 134.516 39.5255 140.125 26.4415 146.011C22.8252 142.761 19.9855 139.551 16.9141 136.58C16.0087 135.704 14.4481 135.506 13.1878 134.998C13.1311 126.31 13.0745 117.622 13.421 108.423C14.5501 106.934 15.2761 105.958 16.1525 104.686C20.5315 100.261 24.7601 96.1315 29.3094 91.9545C30.0875 91.2635 30.5449 90.6197 31.1534 89.6813C35.5326 85.2582 39.7606 81.1299 44.3587 76.9911C45.4865 75.9841 46.2441 74.9876 47.1514 73.695C50.531 70.2664 53.7609 67.134 57.4596 64.0126C58.553 64.0508 59.1775 64.0781 59.8021 64.1054Z" fill="#FBFBFB"/>
<path d="M99.164 110.507C102.209 112.774 105.266 115.026 108.296 117.312C111.183 119.49 114.042 121.702 117.493 124.342C118.421 115.396 117.838 107.497 112.458 100.285C113.769 98.706 114.73 97.4132 115.885 96.3272C117.508 94.802 119.275 93.4305 121.203 91.8833C121.701 91.5712 121.889 91.3063 122.132 90.6727C126.513 85.9121 130.752 81.4573 135.309 77.0027C136.477 77.0123 137.325 77.0216 138.173 77.031C138.278 86.3513 138.383 95.6716 138.135 105.444C137.944 106.629 138.107 107.362 138.27 108.094C138.349 116.728 138.429 125.362 138.122 134.479C134.993 136.491 136.811 137.262 138.254 138.095C138.254 142.561 138.254 147.026 138.254 152.502C127.81 147.679 117.68 143.001 107.233 137.784C106.285 136.799 105.653 136.353 104.972 135.57C100.615 130.822 96.3075 126.411 91.9992 121.666C91.9992 120.888 91.9996 120.444 92.1505 119.702C94.5886 116.438 96.8763 113.472 99.164 110.507ZM112.431 130.775C112.698 130.574 112.888 130.317 113.431 129.775C113.698 129.575 113.888 129.317 114.431 128.775C114.698 128.575 114.889 128.318 115.257 127.897C115.17 127.931 115.083 127.964 114.568 128.226C114.3 128.426 114.11 128.683 113.568 129.226C113.3 129.426 113.11 129.683 112.568 130.226C112.3 130.426 112.11 130.683 111.568 131.226C111.301 131.426 111.111 131.683 110.569 132.225C110.302 132.425 110.111 132.683 109.569 133.225C109.302 133.425 109.111 133.683 108.744 134.103C108.83 134.069 108.917 134.036 109.432 133.774C109.699 133.574 109.889 133.316 110.432 132.774C110.699 132.574 110.89 132.317 111.431 131.774C111.698 131.574 111.888 131.317 112.431 130.775Z" fill="#FCFCFC"/>
<path d="M374.075 101.86C374.075 98.4286 374.075 95.4674 374.075 92.2455C377 92.2455 379.601 92.2455 382.565 92.2455C382.565 107.616 382.565 123.119 382.565 139.037C379.526 138.029 375.449 141.349 373.418 136.039C372.47 136.675 371.362 137.963 370.074 138.177C366.742 138.731 363.137 139.651 359.991 138.919C351.753 137.003 347.915 126.282 351.084 115.504C353.438 107.495 360.781 103.424 368.545 105.974C370.338 106.562 371.949 107.704 374.075 108.818C374.075 106.505 374.075 104.417 374.075 101.86ZM369.69 131.619C370.571 130.878 371.657 130.283 372.298 129.374C376.422 123.527 373.684 113.349 367.767 113.115C365.515 113.026 361.525 114.505 361.208 115.917C360.277 120.059 360.064 124.686 360.962 128.82C361.753 132.464 365.652 132.375 369.69 131.619Z" fill="#F4F4F4"/>
<path d="M212.108 137.663C212.081 122.253 212.081 107.313 212.081 92.1793C215.132 92.1793 217.735 92.1793 220.687 92.1793C220.687 97.6495 220.687 103.082 220.687 109.253C225.359 106.187 229.658 104.259 234.852 105.817C242.05 107.977 245.725 114.948 244.761 125.327C243.96 133.955 239.123 139.615 231.644 139.598C228.234 139.59 224.827 137.931 221.257 136.978C219.329 141.061 215.613 139.017 212.108 137.663ZM227.676 112.915C222.153 114.442 219.87 118.662 221.092 125.273C221.871 129.489 223.97 132.306 228.761 132.087C233.009 131.894 235.142 129.297 235.446 123.861C235.847 116.684 234.073 113.889 227.676 112.915Z" fill="#F4F4F4"/>
<path d="M278.032 136.143C270.21 140.843 261.996 140.892 256.262 136.508C250.893 132.404 248.753 124.344 250.956 116.52C252.948 109.445 258.707 105.313 266.68 105.238C274.892 105.16 281.014 109.312 282.858 116.56C284.681 123.723 283.985 130.433 278.032 136.143ZM272.894 129.121C273.24 125.551 274.259 121.886 273.774 118.433C273.047 113.255 267.237 111.041 262.944 113.857C259.122 116.363 259.066 120.489 259.742 124.175C260.225 126.812 261.822 130.458 263.869 131.271C266.157 132.18 269.514 130.398 272.894 129.121Z" fill="#F3F3F3"/>
<path d="M297.623 114.232C296.051 115.242 294.83 116.092 293.213 117.217C291.933 115.452 290.704 113.756 289.513 112.114C294.726 105.744 304.021 103.403 311.137 106.51C314.935 108.168 316.538 111.294 316.688 115.226C316.814 118.546 316.578 121.882 316.763 125.197C316.909 127.824 315.255 131.304 320.037 132.171C320.768 132.303 320.857 135.978 321.562 139.7C316.443 138.657 312.432 137.84 307.435 136.822C304.884 139.589 300.36 140.643 295.133 139.074C290.917 137.809 288.894 134.803 288.563 130.644C288.225 126.39 290.033 123.078 294.079 121.572C297.158 120.427 300.547 120.117 303.624 118.967C305.212 118.374 306.419 116.762 307.798 115.61C306.118 114.716 304.518 113.391 302.734 113.061C301.26 112.787 299.568 113.689 297.623 114.232ZM306.891 123.439C304.974 123.937 302.724 123.976 301.232 125.059C299.662 126.199 298.817 128.338 297.655 130.04C299.433 131.053 301.208 132.899 302.992 132.909C306.993 132.93 308.469 129.506 306.891 123.439Z" fill="#F3F3F3"/>
<path d="M176.29 114.863C176.304 118.953 176.182 122.621 176.352 126.276C176.455 128.464 175.134 131.429 179.385 131.902C180.165 131.989 180.524 135.848 181.165 138.3C175.975 139.276 171.583 140.327 168.507 135.289C164.951 139.203 160.692 140.587 155.482 139.245C150.767 138.03 148.479 134.965 148.2 130.337C147.924 125.76 150.262 122.643 154.488 121.233C157.615 120.189 161.022 119.956 164.105 118.821C165.441 118.33 166.278 116.48 167.342 115.247C166.069 114.471 164.646 112.87 163.552 113.071C159.943 113.731 156.453 115.043 152.204 116.318C151.511 115.341 150.298 113.63 149.117 111.964C154.627 105.864 162.835 103.617 170.047 106.19C173.876 107.556 175.908 110.396 176.29 114.863ZM157.616 127.222C158.019 129.006 157.907 131.818 158.942 132.336C160.557 133.143 163.942 133.202 164.809 132.138C166.646 129.883 167.342 126.699 168.506 123.895C168.032 123.585 167.558 123.275 167.085 122.965C164.052 124.152 161.019 125.34 157.616 127.222Z" fill="#F4F4F4"/>
<path d="M28.9887 92.0018C24.7601 96.1315 20.5315 100.261 15.7981 104.694C14.5845 104.993 13.8757 104.991 13.1669 104.988C13.1177 96.3042 13.0684 87.6208 13.4216 78.4242C14.5518 76.935 15.2797 75.9589 16.1206 74.773C16.4315 74.3019 16.6845 74.1154 17.2103 73.8904C17.6995 73.5759 17.8917 73.316 18.0023 72.9986C17.9997 72.9997 17.9976 73.0048 18.215 72.8916C18.7035 72.5767 18.8946 72.3163 19.0027 71.9985C18.9997 71.9997 18.9973 72.0058 19.2147 71.8923C19.7031 71.5769 19.8942 71.3164 20.0026 70.9985C19.9997 70.9997 19.9974 71.0055 20.2145 70.8918C20.7025 70.5762 20.8938 70.316 21.0026 69.9985C20.9997 69.9997 20.9973 70.0056 21.2149 69.8922C21.7037 69.577 21.8949 69.3165 22.0029 68.9984C21.9996 68.9997 21.9972 69.0061 22.2157 68.8914C22.7068 68.5726 22.8973 68.3091 23.1182 67.7766C23.4275 67.3053 23.6795 67.1182 24.2066 66.8934C24.7005 66.5796 24.8937 66.3183 25.0029 65.9984C24.9996 65.9997 24.9972 66.0061 25.2148 65.8927C25.7035 65.5774 25.8945 65.3167 26.0026 64.9985C25.9997 64.9997 25.9974 65.0055 26.2143 64.8917C26.7018 64.5761 26.8929 64.316 27.0022 63.9986C26.9997 63.9997 26.9976 64.0048 27.2147 63.8912C27.7024 63.5758 27.8937 63.3157 28.0027 62.9985C27.9997 62.9997 27.9973 63.0057 28.2149 62.8926C28.704 62.5778 28.8948 62.3171 29.0024 61.9986C28.9998 61.9997 28.9989 62.0051 29.3745 62.0037C30.5013 62.0086 31.2525 62.0149 32.2028 62.2827C36.2664 66.3574 40.1309 70.1706 43.9966 74.3612C43.9947 75.4929 43.9916 76.2472 43.9886 77.0015C39.7606 81.1299 35.5326 85.2582 30.8356 89.7349C29.9073 90.7228 29.448 91.3623 28.9887 92.0018Z" fill="white"/>
<path d="M102.244 21.9022C110.876 32.67 119.508 43.4379 127.915 54.5731C127.461 54.9601 127.234 54.9798 126.79 55.1124C126.304 55.4255 126.113 55.6836 126 55.9998C126 55.9998 126 55.9995 125.785 56.113C125.302 56.4269 125.112 56.6846 125 56.9998C125 56.9998 125 56.9995 124.785 57.113C124.302 57.4269 124.112 57.6846 124 57.9998C124 57.9998 124 57.9996 123.785 58.1131C123.302 58.4269 123.112 58.6845 123 58.9997C123 58.9997 122.999 58.9996 122.75 59.0966C121.667 59.1263 120.833 59.0589 119.841 58.6872C115.455 54.5919 111.227 50.8007 106.954 46.6899C106.268 45.914 105.628 45.4577 104.692 44.85C100.6 40.4672 96.8039 36.2358 93.0106 31.6392C96.0902 28.15 99.1673 25.0261 102.244 21.9022Z" fill="#FBFBFB"/>
<path d="M63.8466 3.2988C64.3529 3.9571 65.068 4.93844 64.9996 5.86169C64.4474 13.3087 63.7479 20.7448 62.5991 28.5933C61.0667 30.0032 60.0286 31.0039 58.7284 32.129C57.9781 32.8345 57.4898 33.4157 56.787 34.1129C56.3051 34.4307 56.1127 34.6886 55.733 35.1267C54.9814 35.8323 54.492 36.4134 53.7881 37.1109C53.3056 37.4294 53.1139 37.688 52.9991 38.0015C52.9991 38.0015 53.0031 37.9984 52.7882 38.1135C52.3054 38.4301 52.1138 38.6882 51.9992 39.0014C51.9992 39.0014 52.003 38.9985 51.7882 39.1136C51.3056 39.4302 51.114 39.6882 50.9992 40.0013C50.9992 40.0013 51.0028 39.9985 50.788 40.1137C50.3055 40.4303 50.1139 40.6883 49.9992 41.0013C49.9992 41.0013 50.0028 40.9985 49.788 41.1137C49.3055 41.4303 49.1139 41.6883 48.9992 42.0013C48.9992 42.0013 49.0028 41.9985 48.788 42.1137C48.3055 42.4305 48.1139 42.6885 47.9991 43.0015C47.9991 43.0015 48.0031 42.9984 47.7881 43.1136C47.3051 43.4304 47.1135 43.6886 46.999 44.0017C46.9998 43.9998 47.0035 43.9992 46.6274 44.0028C45.499 43.998 44.7467 43.9898 43.844 43.6885C41.4901 41.3361 39.2867 39.2768 37.0833 37.2175C45.953 26.0099 54.8227 14.8024 63.8466 3.2988Z" fill="#F9F9F9"/>
<path d="M326.078 133.855C326.096 124.576 326.114 115.782 326.143 106.988C326.143 106.849 326.29 106.71 326.595 106.169C329.514 106.834 333.585 103.499 335.094 107.962C339.142 107.129 343.081 106.318 347.961 105.314C347.187 109.166 346.714 111.525 346.247 113.849C337.667 112.838 335.208 115.012 334.937 123.499C334.857 125.986 334.922 128.477 334.922 130.966C334.922 133.434 334.922 135.901 334.922 138.692C331.989 138.692 329.284 138.692 326.078 138.692C326.078 137.225 326.078 135.782 326.078 133.855Z" fill="#F6F6F6"/>
<path d="M194.898 121.477C194.88 127.387 194.88 132.844 194.88 138.659C191.93 138.659 189.215 138.659 186.171 138.659C186.171 128.076 186.171 117.38 186.171 106.233C189.224 106.818 193.275 103.476 194.976 107.96C198.92 107.141 202.868 106.321 207.724 105.313C207.029 109.024 206.608 111.267 206.196 113.467C196.842 113.699 196.509 113.926 194.898 121.477Z" fill="#F5F5F5"/>
<path d="M102.127 21.5765C99.1673 25.0261 96.0902 28.15 92.615 31.6388C91.1627 32.0031 90.1085 32.0025 89.0543 32.002C88.0989 22.1467 87.1435 12.2913 86.5744 2.27792C91.977 8.49684 96.9934 14.8738 102.127 21.5765Z" fill="#F7F7F7"/>
<path d="M36.7887 37.361C39.2867 39.2768 41.4901 41.3361 43.8462 44.0666C43.9983 45.4933 43.9978 46.2487 43.9986 47.0019C44 46.9998 44.0047 46.9962 43.7879 47.1118C43.3017 47.4304 43.1067 47.6894 42.7756 48.1167C42.3026 48.426 42.1156 48.6789 41.7889 49.1057C41.3047 49.4272 41.1123 49.6874 40.9982 50.0021C40.9998 49.9999 41.0042 49.9965 40.7878 50.1119C40.3022 50.4298 40.1081 50.6887 39.7001 51.1491C37.9422 52.8584 36.4733 54.4224 34.7877 56.1046C34.3008 56.4274 34.1054 56.6881 33.7097 57.1397C32.6239 58.1748 31.8134 59.0751 30.7422 59.8749C29.9873 59.5144 29.4931 59.2543 28.8522 58.7019C27.1027 56.9271 25.4999 55.4447 23.8972 53.9624C28.0961 48.4764 32.2951 42.9905 36.7887 37.361Z" fill="#FCFCFC"/>
<path d="M127.006 54.9995C127.234 54.9798 127.461 54.9601 128.03 54.9031C131.342 58.5833 134.704 62.0661 137.123 66.1132C138.415 68.2752 138.079 71.4108 137.927 74.5428C136.582 74.9855 135.786 74.9924 134.701 74.8542C132.941 73.1423 131.47 71.5756 129.886 69.7913C129.572 69.3023 129.311 69.1113 128.779 68.8875C128.301 68.5754 128.112 68.3201 127.887 67.7914C127.575 67.3042 127.316 67.113 126.999 67.0005C126.999 67.0005 126.999 67.0014 126.885 66.7853C126.569 66.2998 126.309 66.1104 125.714 65.8654C124.624 64.8227 123.812 63.9156 122.999 62.6075C123 61.1375 123 60.0686 122.999 58.9996C122.999 58.9996 123 59 123.215 58.8867C123.698 58.5731 123.888 58.3152 124 57.9996C124 57.9996 124 58 124.215 57.8867C124.698 57.5731 124.888 57.3152 125 56.9995C125 56.9995 125 57 125.215 56.8867C125.698 56.5731 125.888 56.3152 126 55.9995C126 55.9995 126 56 126.215 55.8865C126.699 55.5722 126.891 55.3144 127.006 54.9995Z" fill="#FAFAFB"/>
<path d="M23.6012 54.1139C25.4999 55.4447 27.1027 56.9271 28.8531 59.0783C29.0001 60.4998 28.9995 61.2524 28.9989 62.0051C28.9989 62.0051 28.9998 61.9997 28.7862 62.1134C28.3031 62.4292 28.1113 62.6887 27.9973 63.0057C27.9973 63.0057 27.9997 62.9997 27.7869 63.1137C27.305 63.4297 27.1129 63.6887 26.9976 64.0048C26.9976 64.0048 26.9997 63.9997 26.7865 64.114C26.3046 64.4305 26.1126 64.6895 25.9973 65.0055C25.9973 65.0055 25.9997 64.9997 25.7863 65.1136C25.3036 65.4297 25.1116 65.6892 24.9972 66.0061C24.9972 66.0061 24.9996 65.9997 24.7857 66.1139C24.3021 66.431 24.1071 66.6902 23.9868 67.0057C23.6795 67.1182 23.4274 67.3053 22.9025 67.895C22.3046 68.4271 22.1122 68.6881 21.9972 69.0061C21.9972 69.0061 21.9996 68.9997 21.7865 69.1134C21.3038 69.4292 21.1118 69.6887 20.9973 70.0056C20.9973 70.0056 20.9997 69.9997 20.7866 70.1137C20.3044 70.4298 20.1123 70.6891 19.9973 71.0055C19.9973 71.0055 19.9997 70.9997 19.7864 71.1136C19.3037 71.4296 19.1118 71.689 18.9973 72.0058C18.9973 72.0058 18.9997 71.9997 18.7866 72.1133C18.304 72.4289 18.1121 72.6882 17.9976 73.0048C17.9976 73.0048 17.9997 72.9997 17.7865 73.1142C17.3048 73.4308 17.1112 73.6891 16.9925 74.0036C16.6845 74.1154 16.4315 74.3019 15.7645 74.7788C14.5835 74.9933 13.8717 74.9923 13.1599 74.9913C11.327 68.0261 15.8922 63.6224 19.6144 58.8846C20.8319 57.3349 22.0742 55.8046 23.6012 54.1139Z" fill="#FAFAFB"/>
<path d="M13.1022 135.459C14.4481 135.506 16.0088 135.704 16.9141 136.58C19.9855 139.551 22.8252 142.761 26.0855 146.025C22.1499 148.21 17.8821 150.249 13.0166 152.574C13.0166 146.465 13.0166 141.192 13.1022 135.459Z" fill="#F9F9F9"/>
<path d="M91.9997 122C96.3075 126.411 100.615 130.822 104.961 135.81C104.999 136.387 105.03 136.865 105.03 136.865C98.8009 133.802 92.5715 130.74 86.1543 127.397C87.1105 125.511 88.2543 123.907 90.0319 122.152C91.1103 122.001 91.555 122 91.9997 122Z" fill="#F9F9F9"/>
<path d="M13.0778 105.36C13.8757 104.991 14.5845 104.993 15.6477 104.989C15.2761 105.958 14.5501 106.934 13.4982 107.96C13.1111 107.251 13.0499 106.492 13.0778 105.36Z" fill="#F0F0F0"/>
<path d="M138.441 137.718C136.811 137.262 134.993 136.491 138.004 134.925C138.392 135.706 138.51 136.523 138.441 137.718Z" fill="#D7D7D8"/>
<path d="M134.99 74.9993C135.786 74.9924 136.582 74.9855 137.775 74.9637C138.287 75.4868 138.402 76.0249 138.344 76.797C137.325 77.0216 136.477 77.0123 135.312 76.6688C134.994 75.8896 134.992 75.4444 134.99 74.9993Z" fill="#F7F7F7"/>
<path d="M13.0735 75.364C13.8717 74.9923 14.5835 74.9933 15.6514 74.9886C15.2796 75.9589 14.5518 76.935 13.4982 77.9619C13.1107 77.2541 13.0489 76.4954 13.0735 75.364Z" fill="#F0F0F0"/>
<path d="M138.433 107.738C138.107 107.362 137.944 106.629 138.023 105.892C138.375 106.385 138.486 106.883 138.433 107.738Z" fill="#D7D7D8"/>
<path d="M105.234 137.073C105.03 136.865 104.999 136.387 105.01 136.148C105.653 136.353 106.285 136.799 106.964 137.552C106.486 137.667 105.962 137.474 105.234 137.073Z" fill="#EEEEEE"/>
<path d="M134.701 74.8542C134.992 75.4444 134.994 75.8896 134.993 76.6686C130.752 81.4573 126.513 85.9121 121.917 90.7907C121.292 91.4185 121.099 91.6781 120.981 91.9933C119.275 93.4305 117.508 94.802 115.885 96.3272C114.73 97.4131 113.769 98.706 112.375 99.9491C106.343 96.4926 100.658 92.9934 93.9584 88.87C92.3515 71.2284 90.6059 52.0653 88.9573 32.4521C90.1085 32.0025 91.1627 32.0031 92.6125 32.004C96.8039 36.2358 100.6 40.4672 104.741 45.1675C105.725 46.0942 106.362 46.5519 106.999 47.0096C111.227 50.8007 115.455 54.5919 119.836 59.0381C119.659 60.7947 119.328 61.8962 118.783 63.1116C118.301 63.4256 118.111 63.6829 117.783 64.1108C117.301 64.425 117.111 64.6825 116.783 65.1107C116.301 65.4248 116.111 65.6823 115.783 66.1104C115.3 66.4246 115.109 66.6824 114.782 67.1112C114.301 67.4253 114.111 67.6825 113.783 68.1103C113.301 68.4246 113.111 68.6822 112.783 69.1104C112.301 69.4247 112.111 69.6822 111.783 70.1105C111.301 70.4246 111.111 70.6822 110.783 71.1104C110.301 71.4245 110.11 71.6821 109.783 72.1103C109.301 72.4244 109.11 72.6819 108.782 73.1101C108.299 73.4242 108.109 73.682 107.869 74.0506C107.829 74.0704 107.916 74.037 108.218 73.8903C108.702 73.5766 108.892 73.3184 109.218 72.8893C109.702 72.5758 109.892 72.318 110.218 71.8892C110.702 71.5757 110.892 71.3179 111.218 70.8891C111.701 70.5757 111.891 70.3179 112.218 69.8891C112.701 69.5757 112.892 69.3179 113.218 68.8892C113.702 68.5758 113.892 68.3181 114.218 67.8893C114.701 67.5759 114.891 67.3184 115.218 66.8903C115.702 66.5765 115.892 66.3183 116.218 65.8891C116.701 65.5756 116.891 65.3177 117.218 64.8889C117.701 64.5755 117.891 64.3177 118.218 63.8889C118.7 63.5756 118.89 63.3181 119.3 62.9806C120.732 62.975 121.865 62.9917 122.999 63.0085C123.812 63.9156 124.624 64.8227 125.83 66.0798C126.425 66.6977 126.683 66.8882 126.999 67.0014C126.999 67.0014 127 67 127.113 67.2159C127.427 67.6998 127.685 67.892 127.999 68.0083C128.112 68.3201 128.301 68.5754 128.895 69.1026C129.426 69.699 129.684 69.8917 129.999 70.0088C131.47 71.5756 132.941 73.1423 134.701 74.8542Z" fill="#FDFDFD"/>
<path d="M98.9928 110.236C96.8763 113.472 94.5886 116.438 91.8169 119.703C90.8887 120.001 90.4443 120.001 89.9999 120C85.8653 115.767 81.7307 111.533 77.2492 106.834C76.2677 105.91 75.6331 105.453 74.9984 104.995C72.8619 102.762 70.7254 100.529 68.1423 97.8093C67.3997 96.3875 67.1036 95.4522 66.8074 94.5169C70.0418 86.1076 70.1616 77.3342 69.8496 68.51C69.8203 67.679 69.9785 66.7978 69.7553 66.025C68.9414 63.2074 66.5497 59.8075 67.4201 57.7624C69.1155 53.7794 72.612 50.5629 75.6808 46.6201C78.4415 50.0291 81.1002 53.1679 83.5567 56.4576C84.0977 57.182 84.3057 58.5697 84.0184 59.437C77.2729 79.8027 82.2448 96.8828 98.9928 110.236Z" fill="#FBFBFB"/>
<path d="M42.0041 48.9876C42.1156 48.6789 42.3026 48.426 42.9951 48.004C43.6987 47.5776 43.8919 47.3167 44.0047 46.9962C44.0047 46.9962 44 46.9998 44.3681 46.9912C45.4919 45.9882 46.2477 44.9937 47.0035 43.9992C47.0035 43.9992 46.9998 43.9999 47.2155 43.8883C47.7009 43.5754 47.8916 43.316 48.0031 42.9984C48.0031 42.9984 47.9998 42.9999 48.2154 42.888C48.7005 42.575 48.8911 42.3158 49.0028 41.9985C49.0028 41.9985 48.9998 41.9999 49.2154 41.8879C49.7005 41.5749 49.8911 41.3158 50.0028 40.9985C50.0028 40.9985 49.9998 40.9999 50.2154 40.8879C50.7005 40.5749 50.8911 40.3158 51.0028 39.9985C51.0028 39.9985 50.9998 39.9999 51.2154 39.8879C51.7006 39.5748 51.8912 39.3157 52.003 38.9985C52.003 38.9985 51.9998 38.9999 52.2155 38.888C52.7009 38.5751 52.8915 38.3158 53.0031 37.9984C53.0031 37.9984 52.9998 37.9999 53.2158 37.8876C53.7018 37.5735 53.8921 37.3132 54.0027 36.9945C54.492 36.4134 54.9814 35.8323 55.9499 35.0136C56.6995 34.5748 56.8903 34.3152 57.0015 33.997C57.4898 33.4157 57.9781 32.8345 59.1066 32.1284C60.7542 32.0074 61.7617 32.0113 62.7691 32.0153C61.8572 41.7272 60.9454 51.4391 59.6285 61.6079C58.4792 62.7103 57.735 63.356 56.9907 64.0016C53.7609 67.134 50.531 70.2664 46.9026 73.7966C45.6679 74.1242 44.8316 74.054 43.9954 73.9838C40.1309 70.1706 36.2663 66.3574 32.175 61.9831C31.633 60.9398 31.3179 60.4576 31.0028 59.9754C31.8134 59.0751 32.6239 58.1748 33.9306 57.0263C34.7019 56.5746 34.8945 56.3107 35.0044 55.9865C36.4733 54.4224 37.9422 52.8584 39.9187 51.0361C40.6988 50.5765 40.8914 50.316 41.0042 49.9965C41.0042 49.9965 40.9998 49.9999 41.2158 49.8871C41.7031 49.5708 41.8939 49.3085 42.0041 48.9876Z" fill="#FDFDFD"/>
<path d="M62.8723 31.6461C61.7617 32.0113 60.7543 32.0074 59.3687 32.0041C60.0286 31.0039 61.0667 30.0032 62.4831 28.9977C62.8994 29.7543 62.9375 30.5157 62.8723 31.6461Z" fill="#F0F0F0"/>
<path d="M66.5269 94.7094C67.1036 95.4522 67.3997 96.3875 67.847 97.6611C67.2083 97.9872 66.4184 97.975 65.2338 97.9481C65.3082 96.9229 65.7773 95.9124 66.5269 94.7094Z" fill="#EEEEEE"/>
<path d="M57.4596 64.0126C57.735 63.356 58.4793 62.7103 59.5297 62.0267C59.883 62.5233 59.9302 63.0578 59.8898 63.8489C59.1776 64.0781 58.553 64.0508 57.4596 64.0126Z" fill="#F0F0F0"/>
<path d="M57.4652 87.8192C57.2628 87.1913 57.2047 86.2812 57.3926 85.2037C57.629 85.8698 57.6193 86.7034 57.4652 87.8192Z" fill="#F0F0F0"/>
<path d="M43.9966 74.3612C44.8316 74.054 45.6679 74.1242 46.7529 74.0928C46.2441 74.9876 45.4865 75.9841 44.3587 76.9911C43.9916 76.2472 43.9947 75.4929 43.9966 74.3612Z" fill="#F0F0F0"/>
<path d="M75.045 105.313C75.6331 105.453 76.2677 105.91 76.9526 106.684C76.3657 106.544 75.7286 106.088 75.045 105.313Z" fill="#EEEEEE"/>
<path d="M89.9999 120.333C90.4443 120.001 90.8887 120.001 91.6666 120.001C91.9997 120.444 91.9992 120.888 91.9992 121.666C91.555 122 91.1103 122.001 90.3315 122.001C89.9983 121.556 89.999 121.111 89.9999 120.333Z" fill="#EEEEEE"/>
<path d="M29.3094 91.9545C29.448 91.3623 29.9073 90.7227 30.6844 90.0296C30.5449 90.6197 30.0875 91.2635 29.3094 91.9545Z" fill="#F0F0F0"/>
<path d="M121.203 91.8833C121.099 91.6781 121.292 91.4185 121.775 91.0966C121.889 91.3063 121.701 91.5712 121.203 91.8833Z" fill="#F7F7F7"/>
<path d="M109.003 134.002C108.917 134.036 108.83 134.069 108.872 134.051C109 134 109.003 134.002 109.003 134.002Z" fill="#F9F9F9"/>
<path d="M110.003 133.002C109.889 133.316 109.699 133.574 109.217 133.888C109.003 134.002 109 134 108.999 133.998C109.111 133.683 109.302 133.425 109.784 133.112C110 133 110.003 133.002 110.003 133.002Z" fill="#F9F9F9"/>
<path d="M111.004 132.003C110.89 132.317 110.699 132.574 110.217 132.888C110.003 133.002 109.999 132.998 109.999 132.998C110.111 132.683 110.302 132.425 110.784 132.112C111 132 111.004 132.003 111.004 132.003Z" fill="#F9F9F9"/>
<path d="M114.996 127.997C115.083 127.964 115.17 127.931 115.129 127.949C115 128 114.996 127.997 114.996 127.997Z" fill="#F9F9F9"/>
<path d="M115.002 128.002C114.889 128.318 114.698 128.575 114.216 128.888C114 129 113.996 128.997 113.996 128.997C114.11 128.683 114.3 128.426 114.782 128.111C114.996 127.997 115 128 115.002 128.002Z" fill="#F9F9F9"/>
<path d="M114.001 129.002C113.888 129.317 113.698 129.575 113.216 129.888C113 130 112.997 129.998 112.997 129.998C113.11 129.683 113.3 129.426 113.782 129.111C113.996 128.997 114 129 114.001 129.002Z" fill="#F9F9F9"/>
<path d="M111.996 130.997C112.11 130.683 112.3 130.426 112.782 130.112C112.997 129.998 113 130 113.001 130.002C112.888 130.317 112.698 130.574 112.216 130.888C112 131 111.996 130.997 111.996 130.997Z" fill="#F9F9F9"/>
<path d="M112.001 131.002C111.888 131.317 111.698 131.574 111.217 131.888C111.004 132.003 111 132 110.999 131.998C111.111 131.683 111.301 131.426 111.782 131.111C111.996 130.997 112 131 112.001 131.002Z" fill="#F9F9F9"/>
<path d="M369.311 131.762C365.652 132.375 361.753 132.464 360.962 128.82C360.064 124.686 360.277 120.059 361.208 115.917C361.525 114.505 365.516 113.026 367.767 113.115C373.684 113.349 376.422 123.527 372.298 129.374C371.657 130.283 370.571 130.878 369.311 131.762Z" fill="#0E0E10"/>
<path d="M228.086 112.914C234.073 113.889 235.847 116.684 235.446 123.861C235.142 129.297 233.009 131.894 228.761 132.087C223.97 132.306 221.871 129.489 221.092 125.273C219.87 118.662 222.153 114.442 228.086 112.914Z" fill="#0E0E10"/>
<path d="M272.65 129.454C269.514 130.398 266.157 132.18 263.869 131.271C261.822 130.458 260.225 126.812 259.742 124.175C259.066 120.489 259.122 116.363 262.944 113.857C267.237 111.041 273.047 113.255 273.774 118.433C274.259 121.886 273.24 125.551 272.65 129.454Z" fill="#0E0E10"/>
<path d="M307.293 123.389C308.469 129.506 306.993 132.93 302.992 132.909C301.208 132.899 299.433 131.053 297.655 130.04C298.817 128.338 299.662 126.199 301.232 125.059C302.724 123.976 304.974 123.937 307.293 123.389Z" fill="#131314"/>
<path d="M157.801 126.875C161.019 125.34 164.052 124.152 167.085 122.965C167.558 123.275 168.032 123.585 168.506 123.895C167.342 126.699 166.646 129.883 164.809 132.138C163.942 133.202 160.557 133.143 158.942 132.336C157.907 131.818 158.019 129.006 157.801 126.875Z" fill="#1B1B1D"/>
<path d="M30.7422 59.8749C31.318 60.4576 31.6331 60.9398 31.9759 61.7216C31.2525 62.0149 30.5013 62.0086 29.3745 62.0037C28.9995 61.2524 29.0002 60.4998 28.9998 59.3707C29.4931 59.2543 29.9873 59.5144 30.7422 59.8749Z" fill="#F0F0F0"/>
<path d="M28.2149 62.8926C28.1113 62.6887 28.3031 62.4292 28.7888 62.1123C28.8948 62.3171 28.704 62.5778 28.2149 62.8926Z" fill="#F0F0F0"/>
<path d="M24.2066 66.8934C24.1071 66.6902 24.3021 66.431 24.789 66.1126C24.8937 66.3183 24.7005 66.5796 24.2066 66.8934Z" fill="#F0F0F0"/>
<path d="M25.2147 65.8927C25.1116 65.6892 25.3036 65.4297 25.7892 65.1124C25.8945 65.3167 25.7035 65.5774 25.2147 65.8927Z" fill="#F0F0F0"/>
<path d="M26.2143 64.8917C26.1126 64.6895 26.3047 64.4305 26.7891 64.1129C26.8929 64.3159 26.7018 64.5761 26.2143 64.8917Z" fill="#F0F0F0"/>
<path d="M27.2147 63.8911C27.1129 63.6887 27.305 63.4297 27.7899 63.1125C27.8937 63.3157 27.7024 63.5758 27.2147 63.8911Z" fill="#F0F0F0"/>
<path d="M20.2145 70.8918C20.1123 70.6891 20.3044 70.4298 20.7896 70.1125C20.8938 70.316 20.7025 70.5762 20.2145 70.8918Z" fill="#F0F0F0"/>
<path d="M17.2102 73.8904C17.1112 73.6891 17.3048 73.4308 17.7891 73.1131C17.8917 73.316 17.6994 73.5759 17.2102 73.8904Z" fill="#F0F0F0"/>
<path d="M18.215 72.8916C18.1121 72.6882 18.304 72.4289 18.7896 72.1121C18.8946 72.3163 18.7035 72.5766 18.215 72.8916Z" fill="#F0F0F0"/>
<path d="M19.2146 71.8923C19.1118 71.689 19.3037 71.4296 19.7892 71.1124C19.8942 71.3164 19.7031 71.5769 19.2146 71.8923Z" fill="#F0F0F0"/>
<path d="M21.2149 69.8922C21.1118 69.6887 21.3038 69.4291 21.7897 69.1121C21.8949 69.3165 21.7037 69.577 21.2149 69.8922Z" fill="#F0F0F0"/>
<path d="M22.2157 68.8914C22.1122 68.6881 22.3046 68.4271 22.79 68.1048C22.8973 68.3091 22.7068 68.5726 22.2157 68.8914Z" fill="#F0F0F0"/>
<path d="M122.999 62.6075C121.865 62.9918 120.732 62.975 119.299 62.9791C119 63 118.997 62.9978 118.997 62.9978C119.328 61.8962 119.659 60.7947 119.994 59.3424C120.833 59.0589 121.667 59.1263 122.75 59.0966C123 60.0686 123 61.1375 122.999 62.6075Z" fill="#F7F7F7"/>
<path d="M106.954 46.6899C106.362 46.5519 105.725 46.0942 105.038 45.319C105.628 45.4577 106.268 45.914 106.954 46.6899Z" fill="#F7F7F7"/>
<path d="M123.785 58.1131C123.888 58.3152 123.698 58.5731 123.215 58.8864C123.112 58.6845 123.302 58.4269 123.785 58.1131Z" fill="#F7F7F7"/>
<path d="M124.785 57.1131C124.888 57.3152 124.698 57.5731 124.215 57.8865C124.112 57.6846 124.302 57.4269 124.785 57.1131Z" fill="#F7F7F7"/>
<path d="M125.785 56.113C125.888 56.3151 125.698 56.5731 125.215 56.8865C125.112 56.6846 125.302 56.4269 125.785 56.113Z" fill="#F7F7F7"/>
<path d="M126.79 55.1124C126.891 55.3143 126.699 55.5721 126.215 55.8862C126.113 55.6836 126.304 55.4255 126.79 55.1124Z" fill="#F7F7F7"/>
<path d="M46.6274 44.0028C46.2478 44.9937 45.492 45.9882 44.3667 46.9934C43.9978 46.2487 43.9983 45.4933 43.9966 44.3597C44.7467 43.9898 45.499 43.998 46.6274 44.0028Z" fill="#F0F0F0"/>
<path d="M50.788 40.1137C50.8912 40.3158 50.7006 40.5749 50.2148 40.8894C50.1139 40.6883 50.3055 40.4303 50.788 40.1137Z" fill="#F0F0F0"/>
<path d="M49.788 41.1137C49.8911 41.3158 49.7005 41.5749 49.2148 41.8894C49.1139 41.6883 49.3055 41.4303 49.788 41.1137Z" fill="#F0F0F0"/>
<path d="M48.788 42.1137C48.8911 42.3158 48.7005 42.575 48.2147 42.8896C48.1139 42.6885 48.3055 42.4305 48.788 42.1137Z" fill="#F0F0F0"/>
<path d="M51.7882 39.1136C51.8912 39.3157 51.7006 39.5748 51.2148 39.8894C51.114 39.6882 51.3056 39.4302 51.7882 39.1136Z" fill="#F0F0F0"/>
<path d="M52.7882 38.1135C52.8915 38.3158 52.7009 38.5751 52.2148 38.8896C52.1138 38.6882 52.3054 38.4301 52.7882 38.1135Z" fill="#F0F0F0"/>
<path d="M53.7881 37.1109C53.8921 37.3132 53.7018 37.5735 53.2151 37.8893C53.1139 37.6881 53.3056 37.4294 53.7881 37.1109Z" fill="#F0F0F0"/>
<path d="M56.787 34.1129C56.8904 34.3152 56.6995 34.5748 56.2122 34.8892C56.1127 34.6886 56.3051 34.4308 56.787 34.1129Z" fill="#F0F0F0"/>
<path d="M47.7881 43.1136C47.8916 43.316 47.7009 43.5754 47.2147 43.8901C47.1135 43.6886 47.3051 43.4304 47.7881 43.1136Z" fill="#F0F0F0"/>
<path d="M34.7877 56.1046C34.8945 56.3107 34.7019 56.5746 34.2057 56.8915C34.1054 56.6881 34.3007 56.4274 34.7877 56.1046Z" fill="#F0F0F0"/>
<path d="M40.7878 50.1119C40.8914 50.316 40.6988 50.5765 40.2076 50.8909C40.108 50.6887 40.3022 50.4298 40.7878 50.1119Z" fill="#F0F0F0"/>
<path d="M41.7889 49.1057C41.8939 49.3085 41.7032 49.5708 41.2142 49.8893C41.1123 49.6874 41.3047 49.4272 41.7889 49.1057Z" fill="#F0F0F0"/>
<path d="M43.7879 47.1118C43.8919 47.3167 43.6987 47.5776 43.2057 47.8918C43.1067 47.6894 43.3017 47.4303 43.7879 47.1118Z" fill="#F0F0F0"/>
<path d="M126.885 66.7853C126.683 66.8882 126.425 66.6977 126.107 66.2154C126.309 66.1104 126.569 66.2998 126.885 66.7853Z" fill="#F7F7F7"/>
<path d="M129.886 69.7913C129.684 69.8917 129.426 69.699 129.108 69.2158C129.311 69.1113 129.572 69.3023 129.886 69.7913Z" fill="#F7F7F7"/>
<path d="M127.887 67.7914C127.685 67.892 127.427 67.6998 127.113 67.2163C127.316 67.113 127.575 67.3042 127.887 67.7914Z" fill="#F7F7F7"/>
<path d="M109.004 73.0026C108.892 73.3185 108.702 73.5766 108.217 73.8885C108 74 107.996 73.9973 107.996 73.9973C108.109 73.6821 108.299 73.4242 108.784 73.1119C109 73 109.004 73.0026 109.004 73.0026Z" fill="#F7F7F7"/>
<path d="M116.003 66.0024C115.892 66.3183 115.702 66.5765 115.217 66.8885C115 67 114.997 66.9974 114.997 66.9974C115.109 66.6824 115.3 66.4246 115.784 66.1121C116 66 116.003 66.0024 116.003 66.0024Z" fill="#F7F7F7"/>
<path d="M115.999 65.9984C116.111 65.6823 116.301 65.4248 116.784 65.1122C117 65 117.003 65.0022 117.003 65.0022C116.891 65.3177 116.701 65.5756 116.218 65.8891C116.003 66.0024 116 66 115.999 65.9984Z" fill="#F7F7F7"/>
<path d="M116.999 64.9986C117.111 64.6825 117.301 64.425 117.784 64.1122C118 64 118.003 64.0021 118.003 64.0021C117.891 64.3177 117.701 64.5755 117.218 64.8889C117.003 65.0022 116.999 64.9986 116.999 64.9986Z" fill="#F7F7F7"/>
<path d="M117.999 63.9986C118.111 63.6829 118.301 63.4256 118.783 63.1116C118.997 62.9978 119.001 63.0015 119.001 63.0015C118.89 63.3181 118.7 63.5756 118.218 63.8889C118.003 64.0021 117.999 63.9986 117.999 63.9986Z" fill="#F7F7F7"/>
<path d="M108.001 74.0018C107.916 74.037 107.829 74.0704 107.869 74.0506C107.996 73.9973 108 74 108.001 74.0018Z" fill="#F7F7F7"/>
<path d="M108.999 72.9983C109.11 72.6819 109.301 72.4244 109.784 72.1119C110 72 110.003 72.0025 110.003 72.0025C109.892 72.318 109.702 72.5758 109.218 72.8893C109.004 73.0026 109 73 108.999 72.9983Z" fill="#F7F7F7"/>
<path d="M111.003 71.0024C110.892 71.3179 110.702 71.5757 110.218 71.8892C110.003 72.0025 110 72 109.999 71.9983C110.11 71.6821 110.301 71.4245 110.784 71.112C111 71 111.003 71.0024 111.003 71.0024Z" fill="#F7F7F7"/>
<path d="M110.999 70.9984C111.111 70.6822 111.301 70.4246 111.784 70.112C112 70 112.003 70.0024 112.003 70.0024C111.891 70.3179 111.701 70.5757 111.218 70.8891C111.003 71.0024 111 71 110.999 70.9984Z" fill="#F7F7F7"/>
<path d="M113.003 69.0024C112.892 69.3179 112.701 69.5757 112.218 69.8891C112.003 70.0024 111.999 69.9984 111.999 69.9984C112.111 69.6822 112.301 69.4247 112.784 69.1121C113 69 113.003 69.0024 113.003 69.0024Z" fill="#F7F7F7"/>
<path d="M112.999 68.9984C113.111 68.6822 113.301 68.4246 113.784 68.112C114 68 114.003 68.0025 114.003 68.0025C113.892 68.318 113.702 68.5758 113.218 68.8891C113.003 69.0024 113 69 112.999 68.9984Z" fill="#F7F7F7"/>
<path d="M115.001 67.0017C114.891 67.3184 114.701 67.5759 114.218 67.8893C114.003 68.0025 114 68 113.999 67.9983C114.111 67.6825 114.301 67.4253 114.782 67.1112C114.997 66.9974 115 67 115.001 67.0017Z" fill="#F7F7F7"/>
</g>
<defs>
<clipPath id="clip0_2_2">
<rect width="393" height="153" fill="white"/>
</clipPath>
</defs>
</svg>
